<svg xmlns="http://www.w3.org/2000/svg" xmlns:xlink="http://www.w3.org/1999/xlink" width="500" zoomAndPan="magnify" viewBox="0 0 375 374.999991" height="500" preserveAspectRatio="xMidYMid meet" version="1.0"><defs><clipPath id="ce923d2f49"><path d="M 59 81.398438 L 260 81.398438 L 260 168 L 59 168 Z M 59 81.398438 " clip-rule="nonzero"/></clipPath><clipPath id="a7a6cc86cf"><path d="M 17.609375 120 L 322 120 L 322 265 L 17.609375 265 Z M 17.609375 120 " clip-rule="nonzero"/></clipPath><clipPath id="97c928401d"><path d="M 209.285156 243.207031 L 344.609375 243.207031 L 344.609375 316.144531 L 209.285156 316.144531 Z M 209.285156 243.207031 " clip-rule="nonzero"/></clipPath><clipPath id="61aad7ddd2"><path d="M 93.433594 81.398438 L 304.933594 81.398438 L 304.933594 316 L 93.433594 316 Z M 93.433594 81.398438 " clip-rule="nonzero"/></clipPath></defs><rect x="-37.5" width="450" fill="#ffffff" y="-37.499999" height="449.999989" fill-opacity="1"/><rect x="-37.5" width="450" fill="#f8f7f4" y="-37.499999" height="449.999989" fill-opacity="1"/><g clip-path="url(#ce923d2f49)"><path fill="#ffffff" d="M 59.746094 167.773438 C 78.457031 159.226562 100.054688 150.601562 116.945312 140.652344 C 127.078125 134.664062 128.527344 134.804688 137.480469 126.605469 C 142.542969 122.109375 139.054688 125.027344 139.304688 126.175781 C 139.679688 126.484375 140.800781 125.980469 143.113281 124.464844 C 144.960938 123.316406 145.46875 122.730469 143.800781 124.566406 C 140.144531 127.960938 147.628906 124.398438 149.933594 123.832031 C 156.058594 121.828125 167.582031 117.183594 171.230469 115.054688 C 175.523438 112.589844 170.730469 112.589844 172.945312 112.21875 C 176.097656 112.679688 175.351562 112.660156 178.386719 109.632812 C 179.503906 108.425781 179.5625 108.378906 179.171875 109 C 176.703125 113.015625 179.691406 111.0625 185.121094 108.382812 C 187.183594 107.308594 189.960938 105.90625 191.289062 105.261719 C 197.964844 101.976562 205.179688 98.75 211.96875 95.164062 C 213.382812 94.414062 217.769531 92.320312 217.660156 92.449219 C 217.027344 93.167969 211.097656 96.84375 216.082031 95.480469 C 225.105469 92.828125 223.300781 93.734375 236.34375 89.15625 C 242.320312 87.34375 254.203125 82.878906 259.308594 81.398438 C 259.332031 81.421875 258.613281 81.800781 257.710938 82.242188 C 253.949219 84.527344 227.160156 95.777344 243.464844 94.648438 C 245.699219 94.289062 235.753906 97.503906 233.449219 98.550781 C 226.972656 101.535156 212.828125 106.582031 209.640625 110.222656 C 209.613281 111.78125 217.371094 110.402344 219.226562 110.304688 C 222.492188 109.820312 216.832031 111.121094 216.089844 111.421875 C 199.378906 115.785156 178.863281 118.425781 163.691406 126.804688 C 156.710938 130.238281 148.089844 137.246094 141.8125 139.496094 C 139.976562 141.609375 98.503906 151.039062 116.054688 150.359375 C 105.78125 154.097656 98.4375 154.460938 86.710938 158.425781 C 77.902344 161.125 68.5 164.957031 59.746094 167.773438 " fill-opacity="1" fill-rule="nonzero"/></g><g clip-path="url(#a7a6cc86cf)"><path fill="#ffffff" d="M 17.769531 263.964844 C 26.339844 258.976562 55.625 243.511719 66.953125 235.039062 C 67.824219 233.921875 68.804688 232.628906 68.867188 231.402344 C 71.40625 232.566406 74.929688 231.855469 77.6875 230.546875 C 82.835938 228.132812 84.820312 227 89.453125 223.835938 C 102.851562 215.03125 110.746094 204.519531 123.832031 195.957031 C 126.253906 194.308594 126.800781 193.980469 126.5 194.363281 C 114.328125 211.265625 180.035156 172.65625 182.472656 170.582031 C 186.359375 168.316406 191.574219 165.101562 194.726562 163.878906 C 193.167969 165.164062 189.8125 168.261719 194.011719 168.0625 C 205.390625 165.546875 219.109375 156.183594 230.730469 149.699219 C 234.992188 147.296875 236.84375 146.289062 237.242188 146.15625 C 237.898438 145.921875 236.414062 146.824219 235.683594 147.429688 C 233.507812 148.753906 230.027344 153.359375 234.566406 152.746094 C 236.171875 152.585938 238.007812 151.882812 243.300781 149.410156 C 268.082031 138.355469 296.175781 128.222656 321.464844 120.3125 C 309.175781 125.789062 292.738281 131.382812 280.402344 137.957031 C 273.214844 141.140625 263.78125 148.445312 278.398438 148.15625 C 276.382812 148.796875 262.785156 151.914062 269.335938 153.089844 C 261.683594 153.886719 254.71875 156.480469 246.976562 159.808594 C 235.609375 165.125 226.8125 169.230469 244.753906 167.351562 C 237.628906 168.914062 165.085938 188.296875 182.179688 192.914062 C 162.875 195.207031 137.199219 207.921875 123.402344 218.484375 C 121.898438 219.621094 121.398438 220.148438 122.976562 218.402344 C 124.863281 216.617188 124.285156 215.722656 122.019531 216.144531 C 104.464844 222.683594 83.875 236.097656 66.332031 244.589844 C 65.253906 245.019531 45.386719 255.347656 51.167969 251.578125 C 61.164062 244.183594 41.445312 253.136719 38.726562 254.171875 C 36.957031 254.871094 36.699219 254.996094 25.378906 260.554688 C 21.273438 262.4375 17.613281 264.613281 17.769531 263.964844 " fill-opacity="1" fill-rule="nonzero"/></g><path fill="#ffffff" d="M 77.933594 306.128906 C 80.617188 304.191406 89.292969 298.804688 92.9375 296.992188 C 95.671875 295.671875 96.796875 294.546875 94.324219 295.101562 C 120.054688 282.832031 150.03125 255.933594 173.457031 244.667969 C 171.972656 246.019531 169.035156 248.648438 173.949219 247.589844 C 184.484375 245.789062 196.628906 242.503906 204.777344 238.867188 C 211.101562 235.949219 218.65625 232.34375 221.738281 226.816406 C 222.371094 225.605469 222.355469 225.625 222.859375 225.8125 C 227.363281 225.871094 228.082031 224.121094 233.910156 219.914062 C 241.585938 213.65625 250.394531 208.734375 260.011719 206.503906 C 272.550781 204.363281 287.613281 194.566406 301.144531 188.121094 C 303.480469 186.960938 305.746094 185.902344 305.398438 186.140625 C 302.671875 188 301.488281 189.09375 301.730469 189.53125 C 310.304688 188.21875 319.136719 183.402344 329.363281 178.859375 C 334.488281 176.390625 342.027344 172.878906 342.035156 172.957031 C 332.441406 178.371094 323.25 183.289062 315.109375 189.257812 C 309.449219 193.34375 306.378906 194.761719 299.789062 196.648438 C 290.84375 199.191406 282.929688 202.625 277.097656 208.546875 C 275.46875 210.445312 275.175781 212.167969 277.042969 212.632812 C 277.753906 212.777344 281.242188 211.929688 282.46875 211.675781 C 282.519531 211.71875 282.304688 211.804688 278.101562 213.453125 C 269.929688 216.632812 264.75 219.082031 259.15625 221.996094 C 256.585938 223.257812 255.441406 224.097656 255.492188 224.679688 C 255.132812 225.339844 258.183594 225.957031 259.222656 226.21875 C 259.136719 226.246094 258.050781 226.484375 256.808594 226.738281 C 245.527344 229.21875 233.242188 232.578125 223.601562 238.101562 C 216.089844 242.273438 211.488281 244.828125 203.867188 250.683594 C 199.214844 254.199219 198.1875 255.140625 198.253906 255.832031 C 198.234375 256.664062 199.769531 257.09375 200.699219 257.195312 C 197.894531 258.390625 168.398438 263.601562 179.007812 266.28125 C 171.136719 267.28125 157.394531 266.699219 152.460938 272.425781 C 150.132812 275.296875 153.203125 275.882812 156.011719 276.253906 C 157.65625 276.417969 157.871094 276.34375 153.386719 277.164062 C 133.09375 280.511719 128.117188 283.351562 110.652344 293.683594 C 109.78125 294.179688 109.003906 294.589844 108.925781 294.605469 C 120.152344 284.144531 78.640625 306.078125 77.933594 306.128906 " fill-opacity="1" fill-rule="nonzero"/><g clip-path="url(#97c928401d)"><path fill="#ffffff" d="M 209.339844 316.140625 C 218.316406 309.085938 234.261719 299.765625 233.980469 295.726562 C 233.691406 295.136719 233.949219 295.320312 234.582031 295.316406 C 237.746094 295.402344 244.25 290.5625 244.695312 286.828125 C 244.929688 284.503906 245.351562 289.871094 249.332031 286.328125 C 248.085938 290.449219 252.207031 287.492188 254.835938 285.078125 C 260.070312 280.5625 264.570312 276.90625 268.839844 273.589844 C 263.910156 282.460938 290.117188 270.289062 284.859375 267.257812 C 287.195312 268.445312 286.566406 270.136719 288.566406 266.589844 C 288.585938 267.0625 288.613281 268.183594 288.472656 268.480469 C 288.121094 269.960938 290.679688 268.105469 291.078125 267.777344 C 291.265625 268.007812 289.734375 269.828125 290.667969 269.550781 C 294.238281 268.796875 297.578125 266.101562 301.382812 263.132812 C 310.53125 255.617188 309.363281 265.011719 325.351562 248.914062 C 329.207031 251.832031 335.679688 247.125 343.226562 243.960938 C 345.105469 243.046875 345.34375 243.019531 343.484375 244.0625 C 340.957031 245.085938 294.316406 272.371094 311.976562 272.230469 C 306.257812 275.332031 305.714844 274.75 296.742188 276.011719 C 292.261719 276.546875 290.972656 276.824219 289.203125 277.644531 C 286.851562 278.527344 285.964844 280.859375 289.191406 281.390625 C 289.878906 281.542969 290.257812 281.679688 290.097656 281.71875 C 284.167969 283.003906 275.097656 284.71875 270.261719 287.742188 C 266.152344 290.628906 262.785156 293.8125 257.753906 294.859375 C 253.351562 295.90625 242.996094 299.867188 247.605469 303.304688 C 248.351562 303.855469 248.648438 303.976562 250.191406 304.371094 C 251.769531 304.769531 251.871094 304.8125 251.234375 304.804688 C 246.316406 305.277344 233.652344 303.128906 231.90625 308.058594 C 231.800781 308.539062 231.582031 308.636719 231.238281 308.355469 C 225.820312 306.632812 214.421875 314.011719 209.339844 316.144531 L 209.339844 316.140625 " fill-opacity="1" fill-rule="nonzero"/></g><g clip-path="url(#61aad7ddd2)"><path fill="#ffffff" d="M 236.828125 166.4375 C 238.160156 168.511719 239.492188 170.390625 240.925781 172.070312 C 242.0625 173.402344 242.902344 174.492188 243.445312 175.230469 C 243.691406 175.625 243.644531 175.726562 243.199219 175.527344 C 241.816406 174.933594 240.480469 174.046875 239.199219 172.960938 C 238.949219 172.761719 238.851562 172.8125 238.949219 173.105469 C 239.097656 173.503906 239.246094 173.898438 239.445312 174.292969 C 240.382812 176.121094 241.714844 178.390625 243.445312 181.207031 C 243.890625 181.898438 244.285156 182.691406 244.632812 183.578125 C 244.679688 183.628906 244.632812 183.726562 244.53125 183.726562 C 244.484375 183.726562 244.484375 183.726562 244.433594 183.726562 C 244.136719 183.628906 243.792969 183.480469 243.496094 183.28125 C 242.605469 182.738281 241.863281 182.195312 241.273438 181.601562 C 240.679688 181.109375 240.582031 181.160156 240.925781 181.851562 C 241.714844 183.429688 242.554688 185.011719 243.496094 186.59375 C 244.1875 187.726562 244.582031 188.765625 245.027344 190 C 245.175781 190.394531 245.125 190.445312 244.828125 190.097656 C 244.136719 189.210938 242.953125 187.828125 241.171875 186 C 240.875 185.652344 240.777344 185.703125 240.976562 186.097656 C 241.667969 187.53125 242.507812 188.914062 243.542969 190.347656 C 246.113281 193.804688 249.125 196.867188 252.535156 199.484375 C 253.078125 199.878906 253.027344 200.027344 252.386719 199.828125 C 250.609375 199.285156 248.828125 198.59375 247.101562 197.65625 C 247.050781 197.65625 247 197.65625 246.953125 197.65625 C 246.953125 197.65625 246.953125 197.65625 246.953125 197.707031 C 246.953125 197.707031 246.953125 197.753906 247 197.753906 C 251.546875 201.757812 254.558594 204.523438 256.089844 206.003906 C 257.226562 207.089844 258.609375 208.621094 260.140625 210.546875 C 260.191406 210.597656 260.191406 210.648438 260.089844 210.695312 C 260.042969 210.746094 259.992188 210.695312 259.941406 210.648438 C 258.511719 209.460938 256.980469 208.523438 255.25 207.882812 C 255.203125 207.882812 255.203125 207.882812 255.203125 207.929688 C 255.203125 207.980469 255.203125 207.980469 255.25 207.980469 C 257.425781 209.214844 259.449219 210.695312 261.277344 212.375 C 261.722656 212.820312 262.757812 213.859375 264.4375 215.539062 C 266.214844 217.363281 268.242188 218.699219 270.515625 219.539062 C 271.207031 219.785156 271.207031 219.933594 270.464844 219.882812 C 268.488281 219.835938 266.710938 219.292969 265.03125 218.304688 C 264.980469 218.253906 264.933594 218.304688 264.933594 218.351562 L 264.882812 218.453125 C 264.882812 218.453125 264.882812 218.453125 264.882812 218.5 C 265.179688 218.75 265.871094 219.339844 267.007812 220.28125 C 268.539062 221.5625 270.265625 222.503906 272.046875 223.738281 C 272.785156 224.230469 272.738281 224.378906 271.898438 224.082031 C 270.167969 223.488281 267.996094 222.652344 265.277344 221.464844 C 265.128906 221.414062 265.128906 221.464844 265.179688 221.5625 C 265.328125 221.8125 265.574219 222.058594 265.820312 222.253906 C 268.339844 224.082031 270.5625 225.761719 272.441406 227.34375 C 276.785156 230.949219 279.75 235.445312 281.28125 240.878906 C 281.332031 241.027344 281.28125 241.027344 281.183594 240.925781 L 276.195312 235.988281 C 276.09375 235.886719 276.046875 235.886719 276.144531 236.035156 C 277.625 239.394531 278.515625 243.101562 278.8125 247.101562 C 278.8125 247.148438 278.8125 247.199219 278.8125 247.25 C 278.8125 247.347656 278.714844 247.398438 278.613281 247.398438 C 278.566406 247.398438 278.515625 247.347656 278.464844 247.296875 L 275.402344 242.359375 C 275.253906 242.113281 275.207031 242.160156 275.253906 242.410156 C 275.355469 243.050781 275.453125 243.691406 275.550781 244.382812 C 275.75 245.519531 276.390625 248.136719 277.527344 252.238281 C 278.121094 254.410156 278.367188 256.832031 278.269531 259.449219 C 278.269531 259.5 278.21875 259.597656 278.171875 259.648438 L 278.023438 259.796875 C 277.921875 259.894531 277.921875 259.84375 277.875 259.746094 C 277.675781 258.015625 277.183594 256.4375 276.292969 254.953125 C 275.550781 253.71875 274.859375 252.582031 274.070312 251.496094 C 273.773438 251.101562 273.675781 251.101562 273.824219 251.597656 C 274.464844 254.164062 274.960938 256.832031 275.253906 259.449219 C 275.253906 259.546875 275.253906 259.648438 275.207031 259.746094 C 275.15625 259.796875 275.109375 259.84375 275.007812 259.796875 C 275.007812 259.796875 275.007812 259.796875 274.960938 259.796875 C 274.8125 259.648438 274.5625 259.300781 274.21875 258.707031 C 273.625 257.671875 273.179688 256.632812 272.835938 255.597656 C 272.785156 255.398438 272.6875 255.398438 272.6875 255.597656 C 272.339844 257.375 272.242188 259.105469 272.488281 260.832031 C 272.539062 261.277344 272.835938 262.363281 273.328125 264.140625 C 273.625 265.179688 273.871094 266.265625 274.121094 267.5 C 274.167969 267.699219 274.070312 267.746094 273.921875 267.648438 C 273.28125 267.304688 272.6875 266.859375 272.144531 266.316406 C 271.15625 265.328125 270.117188 264.191406 269.082031 262.808594 C 268.6875 262.265625 268.585938 262.316406 268.734375 262.957031 C 269.082031 264.140625 269.425781 265.328125 269.722656 266.511719 C 270.515625 269.574219 270.367188 272.589844 269.328125 275.503906 C 269.328125 275.550781 269.230469 275.601562 269.179688 275.601562 C 269.082031 275.550781 269.03125 275.503906 269.03125 275.304688 C 269.128906 273.527344 268.835938 271.847656 268.144531 270.316406 C 267.996094 270.019531 267.894531 270.019531 267.847656 270.367188 C 267.453125 272.539062 266.710938 274.566406 265.625 276.441406 C 265.574219 276.539062 265.523438 276.539062 265.425781 276.589844 C 265.375 276.589844 265.328125 276.539062 265.277344 276.492188 C 265.277344 276.492188 265.277344 276.441406 265.277344 276.441406 C 266.316406 272.835938 265.921875 269.574219 264.140625 266.5625 C 263.300781 265.179688 262.167969 263.992188 261.03125 262.859375 C 260.882812 262.710938 260.832031 262.757812 260.832031 262.957031 C 260.929688 263.847656 260.882812 264.683594 260.734375 265.425781 C 260.683594 265.574219 260.585938 265.671875 260.4375 265.625 C 260.4375 265.625 260.386719 265.625 260.386719 265.625 C 259.84375 265.378906 259.398438 264.980469 259.003906 264.4375 C 256.535156 260.734375 254.558594 256.4375 254.261719 252.140625 C 254.261719 251.792969 254.164062 251.792969 254.066406 252.089844 C 253.71875 252.980469 253.375 254.066406 252.929688 255.351562 C 252.78125 255.84375 252.683594 256.832031 252.632812 258.265625 C 252.632812 258.363281 252.582031 258.363281 252.535156 258.363281 C 252.484375 258.363281 252.484375 258.363281 252.433594 258.3125 C 252.433594 258.3125 252.386719 258.265625 252.386719 258.214844 C 251.84375 255.746094 251.644531 253.273438 251.84375 250.707031 C 251.992188 248.878906 252.1875 247.101562 252.433594 245.222656 C 252.535156 244.582031 252.433594 244.53125 252.140625 245.125 C 251.496094 246.457031 251.152344 247.199219 251.152344 247.25 C 250.953125 247.644531 250.757812 247.941406 250.558594 248.1875 C 250.3125 248.433594 250.261719 248.386719 250.3125 248.039062 C 251.003906 245.125 251.347656 241.964844 251.398438 238.457031 C 251.398438 238.011719 251.300781 238.011719 251.050781 238.359375 C 250.359375 239.492188 249.867188 240.828125 249.472656 242.359375 C 249.472656 242.410156 249.421875 242.410156 249.371094 242.457031 C 249.371094 242.457031 249.324219 242.457031 249.273438 242.457031 C 249.273438 242.457031 249.226562 242.457031 249.226562 242.410156 C 249.273438 240.433594 249.078125 238.457031 248.679688 236.480469 C 247.742188 232.035156 244.582031 228.480469 240.730469 226.257812 C 240.679688 226.207031 240.582031 226.257812 240.53125 226.304688 C 240.53125 226.304688 240.53125 226.355469 240.53125 226.355469 C 240.53125 229.515625 240.679688 232.53125 241.074219 235.394531 C 241.171875 236.136719 241.421875 236.828125 241.765625 237.566406 C 241.964844 237.960938 241.863281 238.011719 241.519531 237.816406 C 241.125 237.519531 240.777344 237.222656 240.433594 236.828125 C 240.136719 236.480469 239.988281 236.53125 239.9375 236.976562 C 239.789062 238.902344 240.039062 240.878906 240.679688 242.851562 C 240.828125 243.394531 241.273438 244.085938 241.964844 244.925781 C 243.296875 246.558594 244.039062 247.496094 244.1875 247.644531 C 245.125 248.828125 245.667969 250.066406 245.816406 251.300781 C 245.867188 251.546875 245.914062 252.238281 246.015625 253.324219 C 246.0625 253.769531 246.410156 254.410156 247.101562 255.25 C 247.546875 255.792969 248.484375 256.882812 250.015625 258.511719 C 251.003906 259.597656 251.941406 260.734375 251.992188 262.117188 C 251.992188 262.363281 252.140625 262.609375 252.386719 262.710938 C 253.71875 263.351562 254.90625 263.992188 255.84375 264.683594 C 256.238281 264.980469 256.1875 265.082031 255.695312 265.03125 C 254.261719 264.933594 252.683594 264.585938 250.902344 263.945312 C 250.507812 263.796875 250.460938 263.894531 250.707031 264.242188 C 251.398438 265.03125 252.089844 266.019531 252.78125 267.15625 C 253.472656 268.292969 253.964844 269.277344 254.214844 270.265625 C 254.214844 270.316406 254.214844 270.367188 254.113281 270.414062 C 254.066406 270.414062 254.066406 270.414062 254.015625 270.414062 C 253.964844 270.414062 253.964844 270.414062 253.964844 270.367188 C 253.375 269.527344 252.386719 268.191406 251.347656 267.648438 C 251.199219 267.601562 251.152344 267.601562 251.25 267.746094 C 251.695312 268.636719 252.089844 269.574219 252.433594 270.5625 C 252.980469 272.195312 253.375 273.132812 253.472656 273.429688 C 254.015625 274.515625 254.757812 275.601562 255.695312 276.640625 C 256.289062 277.332031 257.128906 278.269531 258.164062 279.453125 C 259.5 281.035156 260.140625 282.914062 260.089844 285.085938 C 260.042969 286.222656 260.535156 287.257812 261.226562 288.199219 C 262.214844 289.480469 263.449219 290.617188 264.933594 291.65625 C 265.03125 291.703125 265.03125 291.851562 264.980469 291.902344 C 264.980469 291.902344 264.933594 291.953125 264.882812 291.902344 C 263.945312 291.703125 263.054688 291.457031 262.167969 291.113281 C 262.019531 291.0625 261.96875 291.113281 262.066406 291.261719 C 263.253906 293.285156 264.339844 294.964844 265.277344 296.347656 C 265.375 296.445312 265.328125 296.496094 265.179688 296.546875 C 265.128906 296.546875 265.03125 296.496094 264.882812 296.445312 C 264.636719 296.25 264.4375 296.101562 264.339844 296.050781 C 264.042969 295.804688 263.945312 295.855469 263.992188 296.25 C 264.140625 297.136719 264.390625 298.226562 264.636719 299.460938 C 264.785156 300.25 265.523438 302.964844 266.808594 307.609375 C 266.859375 307.707031 266.90625 307.757812 267.007812 307.757812 C 274.167969 307.957031 282.023438 308.351562 290.46875 308.992188 C 293.335938 309.191406 296.496094 309.535156 300.050781 309.980469 C 301.78125 310.179688 303.3125 310.523438 304.695312 311.019531 C 304.894531 311.066406 304.992188 311.265625 304.894531 311.460938 C 304.84375 311.5625 304.792969 311.609375 304.746094 311.660156 C 304.496094 311.808594 304.25 311.90625 304.003906 312.003906 C 302.523438 312.402344 301.136719 312.699219 299.753906 312.84375 C 295.65625 313.339844 290.765625 313.734375 285.035156 314.082031 C 277.132812 314.574219 269.03125 314.921875 260.832031 315.167969 C 246.953125 315.5625 236.777344 315.761719 230.355469 315.761719 C 220.527344 315.808594 213.363281 315.859375 208.96875 315.90625 C 202.398438 316.007812 196.222656 316.007812 190.394531 315.90625 C 187.726562 315.859375 185.605469 315.808594 184.023438 315.808594 C 165.351562 315.761719 146.925781 315.414062 128.75 314.773438 C 119.761719 314.476562 111.957031 314.082031 105.289062 313.636719 C 102.667969 313.4375 100.199219 313.191406 97.730469 312.796875 C 96.398438 312.597656 95.0625 312.253906 93.679688 311.710938 C 93.53125 311.660156 93.433594 311.460938 93.480469 311.265625 C 93.480469 311.214844 93.53125 311.167969 93.582031 311.167969 C 93.828125 310.96875 94.125 310.820312 94.519531 310.722656 C 96.199219 310.277344 98.273438 309.929688 100.695312 309.683594 C 106.324219 309.089844 112.5 308.648438 119.21875 308.300781 C 127.464844 307.90625 135.714844 307.558594 144.011719 307.363281 C 144.113281 307.363281 144.210938 307.265625 144.210938 307.164062 C 144.308594 305.1875 144.65625 303.609375 146.285156 302.125 C 147.472656 301.039062 148.359375 300.199219 148.855469 299.609375 C 149.496094 298.867188 150.136719 298.421875 150.730469 298.226562 C 152.3125 297.679688 153.742188 297.78125 155.128906 298.519531 C 155.324219 298.621094 155.472656 298.667969 155.671875 298.621094 C 155.769531 298.570312 155.917969 298.519531 156.015625 298.472656 C 157.351562 297.730469 159.175781 297.878906 160.5625 298.421875 C 160.757812 298.472656 160.957031 298.421875 161.054688 298.273438 C 163.96875 294.71875 166.09375 290.714844 167.378906 286.320312 C 167.671875 285.332031 167.773438 284.296875 167.671875 283.207031 C 167.523438 280.640625 166.933594 277.972656 165.894531 275.207031 C 165.796875 274.910156 165.699219 274.910156 165.648438 275.207031 C 165.5 275.898438 165.300781 276.640625 165.054688 277.332031 C 165.007812 277.527344 164.90625 277.480469 164.859375 277.332031 C 164.757812 276.984375 164.90625 276.589844 164.859375 276.242188 C 164.609375 272.390625 163.425781 268.785156 161.300781 265.476562 C 159.96875 263.402344 158.929688 261.722656 158.238281 260.4375 C 158.140625 260.238281 158.042969 260.238281 158.042969 260.488281 C 157.941406 261.574219 157.941406 262.808594 157.992188 264.09375 C 157.992188 264.683594 157.894531 264.683594 157.644531 264.191406 C 157.203125 263.300781 156.855469 262.363281 156.609375 261.277344 C 156.015625 258.757812 155.621094 256.335938 155.472656 254.113281 C 155.472656 253.917969 155.421875 253.917969 155.324219 254.066406 C 154.683594 255.496094 154.1875 256.882812 153.84375 258.265625 C 153.742188 258.660156 153.644531 258.660156 153.597656 258.265625 C 153.152344 254.261719 153.546875 250.3125 154.683594 246.457031 C 155.027344 245.324219 155.523438 244.234375 156.164062 243.199219 C 156.511719 242.65625 156.460938 242.554688 155.917969 243 C 154.730469 243.988281 153.695312 245.222656 152.855469 246.753906 C 152.757812 246.953125 152.707031 246.953125 152.707031 246.707031 C 152.90625 245.324219 153.347656 244.039062 153.992188 242.753906 C 154.632812 241.570312 155.917969 239.9375 156.410156 238.605469 C 157.003906 236.976562 157.746094 235.046875 158.929688 233.863281 C 159.722656 233.121094 160.066406 232.675781 160.3125 231.640625 C 160.660156 230.160156 161.152344 228.628906 161.796875 227.144531 C 163.328125 223.6875 165.105469 220.527344 167.230469 217.660156 C 167.425781 217.363281 167.378906 217.21875 167.03125 217.167969 L 165.746094 217.019531 C 165.402344 216.96875 165.105469 217.117188 164.957031 217.414062 C 164.609375 218.007812 164.363281 218.453125 164.117188 218.847656 C 163.625 219.6875 163.96875 220.425781 163.820312 221.21875 C 163.476562 222.699219 161.796875 222.898438 160.511719 223.144531 C 160.265625 223.195312 160.066406 223.34375 159.917969 223.636719 C 158.78125 225.566406 158.089844 227.34375 157.746094 229.023438 C 157.597656 229.761719 157.398438 229.761719 157.152344 229.070312 C 156.511719 227.242188 156.261719 225.417969 156.410156 223.636719 C 156.460938 222.898438 156.460938 222.304688 156.363281 221.8125 C 156.164062 220.824219 156.066406 219.6875 156.164062 218.453125 C 156.214844 217.808594 156.558594 217.316406 157.152344 216.96875 C 157.597656 216.722656 157.992188 216.179688 158.4375 215.339844 C 159.277344 213.660156 160.117188 211.980469 160.90625 210.300781 C 161.054688 210.003906 161.300781 209.757812 161.648438 209.5625 C 164.511719 207.882812 166.832031 206.449219 168.660156 205.410156 C 169.351562 205.015625 170.390625 204.570312 171.722656 204.175781 C 171.972656 204.128906 172.21875 203.929688 172.464844 203.632812 C 174.046875 202.003906 175.578125 200.273438 177.007812 198.496094 C 178.34375 196.867188 179.429688 195.234375 180.367188 193.605469 C 180.417969 193.507812 180.417969 193.457031 180.269531 193.507812 C 179.875 193.605469 179.628906 193.753906 179.480469 193.804688 C 178.933594 194.148438 178.886719 194.050781 179.230469 193.558594 C 181.011719 191.085938 182.046875 188.171875 182.292969 184.765625 C 182.441406 183.234375 182.441406 181.652344 182.394531 179.972656 C 182.394531 179.578125 182.292969 179.578125 182.097656 179.921875 C 181.800781 180.515625 181.355469 181.453125 180.8125 182.738281 C 180.761719 182.839844 180.714844 182.9375 180.664062 182.984375 C 180.613281 183.035156 180.566406 183.035156 180.515625 182.984375 C 180.515625 182.984375 180.464844 182.9375 180.464844 182.886719 C 180.367188 180.617188 180.464844 178.441406 180.761719 176.417969 C 180.960938 175.082031 181.304688 173.847656 181.75 172.761719 C 181.800781 172.664062 181.75 172.613281 181.652344 172.5625 C 181.652344 172.5625 181.601562 172.5625 181.601562 172.5625 C 180.8125 172.613281 180.121094 172.5625 179.578125 172.414062 C 179.332031 172.367188 179.28125 172.414062 179.480469 172.5625 C 179.921875 172.960938 180.21875 173.503906 180.320312 174.195312 C 180.320312 174.292969 180.269531 174.441406 180.121094 174.441406 C 180.070312 174.441406 180.023438 174.441406 179.972656 174.441406 C 178.984375 173.996094 177.75 173.503906 176.316406 172.960938 C 176.121094 172.910156 176.019531 172.859375 175.972656 172.8125 C 175.726562 172.613281 175.625 172.664062 175.675781 172.960938 C 175.871094 174.933594 175.972656 176.417969 175.972656 177.554688 C 175.972656 178.390625 175.824219 178.390625 175.527344 177.652344 C 174.738281 175.578125 173.601562 173.601562 172.117188 171.675781 C 172.070312 171.625 172.019531 171.625 171.972656 171.675781 C 171.972656 171.675781 171.921875 171.722656 171.921875 171.722656 C 171.722656 173.058594 171.824219 174.34375 172.21875 175.578125 C 172.761719 177.207031 173.453125 178.835938 174.339844 180.417969 C 174.390625 180.515625 174.339844 180.664062 174.242188 180.714844 C 174.195312 180.714844 174.195312 180.761719 174.144531 180.761719 C 173.253906 180.761719 172.464844 180.566406 171.722656 180.171875 C 171.476562 180.023438 171.378906 180.070312 171.527344 180.367188 C 172.167969 182 172.664062 183.429688 173.058594 184.566406 C 173.996094 187.578125 174.539062 189.65625 173.796875 192.371094 C 173.007812 195.089844 172.019531 197.707031 170.835938 200.226562 C 170.835938 200.273438 170.785156 200.273438 170.785156 200.324219 C 170.539062 200.519531 170.390625 200.421875 170.390625 200.078125 C 170.339844 198.296875 170.09375 196.765625 169.75 195.433594 C 169.648438 195.089844 169.601562 195.089844 169.5 195.433594 C 169.15625 197.113281 168.464844 198.644531 167.476562 200.078125 C 167.328125 200.324219 167.128906 200.472656 166.882812 200.621094 C 166.785156 200.667969 166.6875 200.621094 166.636719 200.570312 C 166.636719 200.519531 166.636719 200.519531 166.636719 200.472656 L 166.734375 199.335938 C 166.785156 198.890625 166.6875 198.84375 166.4375 199.238281 C 164.710938 201.90625 163.523438 204.820312 162.929688 207.929688 C 162.882812 208.128906 162.832031 208.324219 162.683594 208.472656 C 162.585938 208.574219 162.4375 208.621094 162.339844 208.523438 C 162.289062 208.472656 162.238281 208.425781 162.238281 208.324219 L 162.09375 207.089844 C 162.09375 206.992188 162.042969 206.941406 161.992188 206.894531 C 161.945312 206.84375 161.894531 206.84375 161.84375 206.84375 C 161.796875 206.84375 161.746094 206.894531 161.695312 206.941406 C 160.414062 209.066406 159.078125 211.289062 157.644531 213.710938 C 157.25 214.402344 156.90625 215.042969 156.609375 215.734375 C 156.460938 216.082031 156.261719 216.820312 156.066406 217.910156 C 155.472656 220.972656 154.1875 223.6875 152.164062 226.109375 C 152.015625 226.257812 151.964844 226.550781 151.964844 226.949219 C 151.964844 227.441406 151.917969 228.429688 151.917969 230.011719 C 151.917969 230.304688 151.964844 230.652344 152.066406 231 C 152.3125 231.789062 152.507812 231.9375 152.3125 232.628906 C 152.3125 232.628906 152.164062 232.972656 151.867188 233.566406 C 151.71875 233.863281 151.667969 234.109375 151.667969 234.355469 C 151.667969 234.703125 151.71875 234.949219 151.816406 235.195312 C 152.066406 235.988281 152.359375 236.976562 152.707031 238.210938 C 152.707031 238.308594 152.707031 238.359375 152.609375 238.40625 C 152.558594 238.40625 152.507812 238.40625 152.507812 238.40625 C 150.285156 237.171875 148.210938 235.59375 146.285156 233.617188 C 146.085938 233.367188 146.039062 233.023438 146.234375 232.777344 L 146.582031 232.332031 C 146.582031 232.28125 146.632812 232.234375 146.632812 232.234375 L 146.234375 228.824219 C 146.234375 228.726562 146.1875 228.675781 146.085938 228.773438 L 145.988281 228.824219 C 145.941406 228.875 145.890625 228.921875 145.890625 228.972656 C 145.792969 229.863281 145.542969 230.703125 145.148438 231.542969 C 145.101562 231.640625 145.101562 231.738281 145.101562 231.835938 C 145.199219 232.183594 145.445312 232.480469 145.496094 232.824219 C 145.644531 234.207031 144.261719 234.949219 144.308594 236.382812 C 144.359375 238.011719 144.457031 239.445312 144.65625 240.679688 C 144.703125 240.878906 144.605469 240.925781 144.457031 240.828125 C 143.222656 239.988281 142.1875 238.949219 141.394531 237.714844 C 140.507812 236.332031 139.765625 235.34375 139.269531 234.703125 C 138.875 234.257812 138.679688 233.863281 138.628906 233.566406 C 138.480469 232.875 138.828125 232.332031 138.875 231.738281 C 138.976562 230.851562 139.023438 229.960938 139.125 229.070312 C 139.125 229.023438 139.125 228.972656 139.074219 228.972656 L 138.976562 228.972656 C 138.976562 228.972656 138.976562 228.972656 138.976562 229.023438 C 138.875 229.8125 138.628906 230.554688 138.183594 231.246094 C 138.136719 231.34375 138.085938 231.441406 138.085938 231.542969 C 138.085938 231.835938 138.136719 232.183594 138.285156 232.480469 C 138.332031 232.578125 138.332031 232.675781 138.285156 232.777344 C 138.035156 233.566406 137.542969 234.355469 136.902344 235.097656 C 136.457031 235.59375 136.207031 236.285156 136.160156 237.222656 C 136.0625 238.605469 136.011719 239.839844 136.109375 240.925781 C 136.109375 241.125 136.0625 241.125 135.914062 241.023438 C 133.441406 239.050781 131.910156 235.886719 130.972656 232.824219 C 130.777344 232.183594 130.972656 231.789062 131.46875 231.589844 C 131.714844 231.492188 131.910156 231.246094 132.011719 230.800781 C 132.308594 229.46875 132.554688 228.378906 132.851562 227.390625 C 132.898438 227.292969 132.800781 227.195312 132.703125 227.144531 C 132.652344 227.144531 132.652344 227.144531 132.601562 227.144531 L 130.28125 227.441406 C 130.132812 227.441406 129.984375 227.539062 129.886719 227.6875 C 129.390625 228.480469 128.503906 228.875 127.910156 229.46875 C 127.566406 229.8125 127.21875 230.503906 126.921875 231.492188 C 126.527344 232.777344 126.230469 234.011719 126.082031 235.246094 C 126.035156 235.691406 125.886719 235.738281 125.636719 235.34375 C 124.601562 233.617188 123.613281 230.898438 123.761719 228.972656 C 123.8125 228.527344 123.664062 228.480469 123.367188 228.230469 C 123.265625 228.183594 123.21875 228.082031 123.21875 227.984375 C 122.972656 227.195312 123.515625 225.859375 123.761719 225.21875 C 123.957031 224.675781 124.207031 224.328125 124.453125 224.183594 C 124.503906 224.132812 125.046875 223.886719 126.132812 223.441406 C 126.527344 223.292969 126.972656 222.75 127.417969 221.910156 C 127.761719 221.316406 128.109375 220.527344 128.503906 219.6875 C 128.652344 219.390625 128.949219 219.144531 129.292969 219.042969 C 129.738281 218.945312 130.378906 218.847656 131.21875 218.796875 C 131.417969 218.796875 131.863281 218.699219 132.601562 218.5 C 135.765625 217.613281 137.839844 217.070312 138.875 216.820312 C 139.171875 216.722656 139.519531 216.527344 139.863281 216.179688 C 141.148438 214.894531 142.433594 213.710938 143.421875 212.375 C 145.542969 209.5625 146.582031 206.398438 146.53125 202.992188 C 146.53125 200.226562 146.582031 198.152344 146.730469 196.765625 C 146.730469 196.667969 146.679688 196.570312 146.582031 196.570312 C 146.582031 196.570312 146.53125 196.570312 146.484375 196.570312 C 146.433594 196.570312 146.382812 196.519531 146.382812 196.472656 C 146.382812 194.398438 146.53125 192.570312 146.878906 190.9375 C 146.878906 190.839844 146.828125 190.789062 146.78125 190.742188 C 146.730469 190.742188 146.679688 190.742188 146.679688 190.742188 C 146.382812 190.890625 146.1875 191.085938 146.039062 191.234375 C 145.691406 191.628906 145.59375 191.582031 145.792969 191.085938 C 146.335938 189.457031 147.175781 188.023438 148.261719 186.789062 C 148.707031 186.296875 149.546875 185.40625 150.828125 184.171875 C 151.078125 183.925781 151.175781 183.480469 151.125 182.789062 C 150.929688 179.972656 150.238281 177.304688 149.003906 174.785156 C 149.003906 174.738281 148.902344 174.738281 148.855469 174.738281 C 148.855469 174.738281 148.804688 174.785156 148.804688 174.785156 C 148.410156 175.773438 147.914062 176.664062 147.273438 177.40625 C 146.925781 177.847656 146.828125 177.75 146.925781 177.257812 C 147.222656 176.070312 147.371094 174.636719 147.324219 172.910156 C 147.273438 170.441406 147.074219 168.070312 146.78125 165.796875 C 146.730469 165.597656 146.679688 165.550781 146.582031 165.796875 C 146.234375 166.636719 145.988281 167.230469 145.792969 167.625 C 145.742188 167.671875 145.691406 167.722656 145.644531 167.722656 C 145.59375 167.722656 145.496094 167.671875 145.496094 167.625 C 145.496094 167.625 145.496094 167.625 145.496094 167.574219 C 145.890625 164.90625 145.941406 162.339844 145.59375 159.96875 C 145.347656 157.992188 145.148438 156.609375 145 155.820312 C 145 155.71875 144.953125 155.621094 144.851562 155.570312 C 144.804688 155.570312 144.804688 155.570312 144.753906 155.570312 C 143.964844 157.648438 142.976562 159.769531 141.839844 161.84375 C 141.59375 162.242188 141.394531 162.535156 141.199219 162.734375 C 141.097656 162.832031 141.050781 162.832031 141.097656 162.683594 C 142.085938 159.722656 142.878906 156.511719 143.46875 153.003906 C 143.667969 151.867188 143.765625 150.730469 143.765625 149.546875 C 143.765625 149.398438 143.667969 149.25 143.46875 149.25 C 143.421875 149.25 143.371094 149.25 143.320312 149.300781 L 142.679688 149.644531 C 142.285156 149.84375 142.136719 149.742188 142.285156 149.300781 L 142.730469 147.914062 C 142.777344 147.816406 142.730469 147.667969 142.582031 147.621094 C 142.53125 147.621094 142.53125 147.621094 142.480469 147.621094 C 139.667969 147.816406 137.691406 149.199219 136.554688 151.769531 C 136.0625 152.953125 135.664062 154.140625 135.417969 155.324219 C 134.777344 158.386719 134.382812 160.414062 134.183594 161.300781 C 133.886719 162.636719 133.492188 163.96875 132.949219 165.304688 C 132.355469 166.785156 131.367188 167.820312 130.082031 168.414062 C 129.046875 168.910156 128.207031 168.660156 127.566406 167.773438 C 127.167969 167.179688 126.824219 166.734375 126.625 166.390625 C 126.378906 165.945312 126.527344 165.597656 126.726562 165.253906 C 126.773438 165.15625 126.726562 165.054688 126.675781 165.007812 C 125.539062 164.316406 124.503906 163.425781 123.5625 162.386719 C 123.464844 162.289062 123.515625 162.140625 123.5625 162.042969 C 123.613281 162.042969 123.613281 161.992188 123.664062 161.992188 C 124.796875 161.648438 125.933594 161.5 127.121094 161.5 C 127.269531 161.5 127.417969 161.402344 127.417969 161.253906 L 127.664062 159.324219 C 127.664062 159.226562 127.613281 159.128906 127.464844 159.078125 C 127.417969 159.078125 127.367188 159.078125 127.316406 159.128906 C 126.28125 159.820312 125.6875 160.214844 125.589844 160.3125 C 125.144531 160.609375 125.046875 160.511719 125.292969 160.066406 C 125.636719 159.472656 125.886719 158.980469 126.132812 158.632812 C 126.726562 157.746094 126.28125 156.757812 125.933594 155.867188 C 125.144531 154.039062 124.007812 152.3125 122.476562 150.730469 C 122.378906 150.632812 122.328125 150.632812 122.378906 150.78125 C 122.675781 152.015625 122.773438 153.101562 122.722656 153.941406 C 122.675781 154.4375 122.527344 154.484375 122.28125 154.039062 L 120.351562 150.929688 C 120.253906 150.730469 120.007812 150.683594 119.808594 150.78125 C 119.808594 150.78125 119.761719 150.78125 119.761719 150.832031 L 118.476562 151.917969 C 118.378906 151.964844 118.328125 152.066406 118.328125 152.214844 C 118.328125 152.460938 118.328125 152.65625 118.378906 152.90625 C 118.574219 153.746094 118.671875 154.484375 118.671875 155.226562 C 118.671875 155.324219 118.625 155.375 118.527344 155.277344 L 117.140625 153.894531 C 117.042969 153.792969 116.945312 153.792969 116.894531 153.894531 L 116.550781 154.386719 C 116.449219 154.535156 116.449219 154.730469 116.597656 154.832031 C 116.746094 154.980469 116.796875 155.175781 116.796875 155.523438 C 116.796875 155.570312 116.746094 155.621094 116.746094 155.671875 C 116.648438 155.71875 116.597656 155.71875 116.550781 155.671875 C 116.5 155.621094 116.5 155.570312 116.5 155.523438 L 116.449219 154.980469 C 116.449219 154.832031 116.402344 154.832031 116.300781 154.929688 L 114.671875 157.152344 C 114.574219 157.300781 114.523438 157.5 114.574219 157.695312 L 115.5625 161.796875 C 115.609375 162.09375 115.5625 162.140625 115.316406 161.992188 C 114.523438 161.5 113.933594 160.855469 113.535156 160.117188 C 113.09375 159.375 112.84375 158.882812 112.695312 158.632812 C 112.597656 158.488281 112.5 158.488281 112.402344 158.632812 L 112.351562 158.734375 C 112.300781 158.78125 112.300781 158.882812 112.351562 158.929688 C 112.84375 159.820312 113.289062 160.609375 113.636719 161.402344 C 113.785156 161.746094 113.683594 161.84375 113.339844 161.648438 C 112.449219 161.105469 111.511719 160.660156 110.425781 160.363281 C 110.324219 160.3125 110.078125 160.117188 109.734375 159.820312 C 109.632812 159.722656 109.585938 159.722656 109.484375 159.722656 C 109.140625 159.769531 108.941406 159.769531 108.648438 159.621094 C 107.460938 159.078125 106.472656 158.386719 105.585938 157.5 C 105.140625 157.054688 104.792969 156.511719 104.644531 156.015625 C 104.546875 155.671875 104.644531 155.277344 104.941406 154.929688 C 105.683594 153.992188 106.277344 153.300781 106.71875 152.855469 C 107.3125 152.261719 107.757812 151.570312 108.152344 150.878906 C 109.238281 148.707031 109.980469 146.53125 110.375 144.359375 C 110.621094 143.175781 110.820312 141.789062 111.015625 140.113281 C 111.015625 139.914062 110.96875 139.714844 110.769531 139.617188 C 108.648438 138.332031 108.101562 135.46875 108.203125 133.148438 C 108.25 132.109375 108.25 131.714844 108.894531 130.925781 C 110.128906 129.34375 110.871094 127.269531 111.117188 124.699219 C 111.265625 123.414062 111.265625 122.871094 110.722656 121.6875 C 109.734375 119.5625 109.042969 116.796875 109.585938 114.425781 C 109.632812 114.226562 109.585938 114.082031 109.4375 113.933594 C 107.808594 112.203125 107.214844 110.128906 107.511719 107.757812 C 107.511719 107.660156 107.609375 107.609375 107.707031 107.660156 C 114.476562 110.871094 117.832031 112.5 117.832031 112.5 C 118.425781 112.796875 119.070312 113.09375 119.710938 113.390625 C 119.808594 113.4375 119.957031 113.390625 119.957031 113.289062 C 119.957031 113.289062 119.957031 113.242188 119.957031 113.242188 C 120.402344 110.917969 119.910156 108.796875 119.019531 106.375 C 118.425781 104.746094 117.4375 102.324219 116.105469 99.015625 C 115.808594 98.324219 115.957031 98.222656 116.449219 98.769531 C 116.5 98.816406 116.699219 98.964844 116.996094 99.113281 C 117.09375 99.164062 117.191406 99.113281 117.191406 99.015625 C 117.191406 98.917969 117.140625 98.816406 117.09375 98.667969 C 117.042969 98.621094 117.09375 98.570312 117.140625 98.570312 C 117.191406 98.570312 117.191406 98.570312 117.242188 98.621094 C 118.625 99.953125 119.808594 101.089844 120.847656 102.027344 C 120.847656 102.027344 120.847656 102.027344 120.894531 102.027344 L 120.996094 102.027344 C 120.996094 102.027344 121.042969 102.027344 121.042969 102.027344 C 121.042969 102.027344 121.042969 102.027344 121.042969 101.976562 C 120.601562 101.484375 120.304688 100.992188 120.15625 100.398438 C 120.058594 100.101562 120.15625 100.050781 120.402344 100.25 C 121.589844 101.238281 122.773438 102.226562 124.007812 103.261719 C 124.15625 103.363281 124.453125 103.507812 124.945312 103.609375 C 126.28125 103.953125 128.058594 104.25 130.28125 104.496094 C 130.921875 104.546875 131.21875 104.597656 131.664062 104.152344 C 132.40625 103.410156 133.046875 102.816406 133.640625 102.523438 C 135.269531 101.632812 136.257812 101.089844 136.554688 100.890625 C 137.542969 100.347656 138.828125 99.210938 140.40625 97.433594 C 142.433594 95.160156 143.964844 92.9375 145.050781 90.714844 C 145.199219 90.421875 145.25 90.421875 145.199219 90.765625 C 144.953125 93.136719 144.261719 95.359375 143.125 97.53125 C 142.976562 97.78125 143.023438 97.828125 143.273438 97.679688 C 146.1875 95.753906 148.707031 93.382812 150.78125 90.667969 C 152.410156 88.492188 153.992188 86.121094 155.523438 83.652344 C 155.621094 83.457031 155.671875 83.457031 155.671875 83.703125 C 155.523438 85.828125 155.128906 87.703125 154.484375 89.332031 C 154.4375 89.480469 154.484375 89.53125 154.632812 89.480469 C 155.71875 88.9375 156.558594 88.445312 157.203125 87.902344 C 158.882812 86.46875 160.265625 84.542969 161.300781 82.21875 C 161.351562 82.121094 161.398438 82.023438 161.449219 81.972656 C 161.597656 81.875 161.648438 81.875 161.597656 82.074219 C 161.351562 84.148438 160.757812 86.171875 159.820312 88.097656 C 159.722656 88.246094 159.769531 88.296875 159.917969 88.199219 C 160.363281 87.949219 160.90625 87.753906 161.300781 87.652344 C 162.535156 87.40625 163.96875 87.109375 165.699219 86.765625 C 169.054688 86.074219 171.921875 84.394531 174.292969 81.675781 C 174.441406 81.527344 174.441406 81.527344 174.390625 81.726562 C 173.304688 84.789062 171.722656 87.457031 169.699219 89.828125 C 169.304688 90.273438 169.351562 90.320312 169.847656 90.023438 C 171.378906 89.035156 172.910156 88.199219 174.785156 87.503906 C 176.121094 87.011719 177.996094 86.320312 180.417969 85.480469 C 180.960938 85.28125 181.503906 84.988281 181.898438 84.789062 C 182.097656 84.691406 182.144531 84.738281 182.046875 84.9375 C 181.011719 87.109375 179.726562 89.035156 178.144531 90.765625 C 178.097656 90.816406 178.097656 90.863281 178.144531 90.914062 C 178.144531 90.914062 178.195312 90.964844 178.195312 90.964844 C 180.121094 91.160156 182.34375 91.554688 184.765625 92.199219 C 185.703125 92.445312 186.691406 92.496094 187.726562 92.59375 C 188.519531 92.644531 188.519531 92.742188 187.726562 92.839844 C 186.296875 92.988281 185.011719 93.085938 183.777344 93.136719 C 183.234375 93.136719 182.589844 92.988281 182.046875 92.988281 C 181.503906 92.988281 181.503906 93.039062 182.046875 93.1875 C 184.367188 93.679688 186.542969 93.878906 188.617188 93.730469 C 190.394531 93.628906 192.023438 93.1875 193.605469 92.496094 C 195.1875 91.804688 196.667969 90.914062 198.101562 89.777344 C 198.101562 89.777344 198.148438 89.777344 198.148438 89.777344 C 198.199219 89.777344 198.199219 89.828125 198.199219 89.828125 C 198.199219 89.828125 198.199219 89.875 198.148438 89.875 C 197.210938 91.113281 196.027344 92.347656 194.644531 93.53125 C 194.496094 93.679688 194.496094 93.730469 194.691406 93.679688 L 196.371094 93.484375 C 197.113281 93.382812 197.210938 93.582031 196.617188 94.074219 C 195.433594 95.015625 194 95.953125 192.273438 96.792969 C 191.878906 96.988281 191.878906 97.136719 192.320312 97.1875 C 193.457031 97.335938 195.136719 97.582031 196.074219 98.222656 C 196.371094 98.421875 196.371094 98.472656 195.976562 98.421875 C 195.039062 98.273438 193.902344 98.273438 192.617188 98.371094 C 190.742188 98.472656 188.914062 99.3125 187.285156 100.101562 C 186.988281 100.25 186.988281 100.300781 187.332031 100.300781 C 189.0625 100.101562 191.136719 100.101562 193.011719 100.300781 C 196.371094 100.742188 199.632812 101.582031 202.695312 102.917969 C 203.289062 103.164062 204.523438 103.363281 206.449219 103.460938 C 206.496094 103.460938 206.496094 103.460938 206.496094 103.507812 C 206.496094 103.558594 206.496094 103.558594 206.449219 103.558594 C 205.953125 103.507812 205.015625 103.609375 203.582031 103.804688 C 202.347656 104.003906 200.621094 104.003906 198.347656 103.855469 C 198.347656 103.855469 198.296875 103.855469 198.296875 103.90625 C 198.296875 103.953125 198.296875 103.953125 198.347656 103.953125 C 201.113281 104.449219 203.878906 104.449219 206.695312 103.953125 C 206.992188 103.90625 206.992188 103.953125 206.792969 104.152344 C 205.609375 105.140625 204.175781 105.734375 202.597656 105.980469 C 202.300781 106.027344 202.300781 106.078125 202.597656 106.175781 C 204.523438 106.820312 206.597656 107.660156 208.078125 108.992188 C 208.425781 109.289062 208.375 109.339844 207.929688 109.238281 C 205.113281 108.546875 202.300781 108.054688 199.386719 107.855469 C 199.039062 107.808594 198.988281 107.90625 199.335938 108.054688 C 201.210938 108.941406 203.039062 109.683594 204.820312 110.328125 C 206.152344 110.769531 207.089844 111.164062 207.585938 111.414062 C 208.425781 111.859375 209.265625 112.402344 210.105469 113.042969 C 210.5 113.339844 210.449219 113.4375 210.003906 113.242188 L 206.992188 112.003906 C 206.941406 112.003906 206.941406 112.003906 206.894531 112.054688 L 206.84375 112.105469 C 206.84375 112.105469 206.84375 112.152344 206.84375 112.152344 C 207.734375 112.648438 208.917969 113.289062 210.398438 114.03125 C 212.375 115.019531 214.648438 116.597656 216.230469 118.277344 C 216.277344 118.328125 216.277344 118.425781 216.230469 118.425781 C 216.179688 118.476562 216.128906 118.476562 216.128906 118.425781 C 214.054688 117.539062 212.179688 116.746094 210.351562 116.253906 C 209.957031 116.15625 209.90625 116.203125 210.203125 116.5 C 211.929688 117.984375 213.757812 119.367188 215.636719 120.75 C 217.957031 122.378906 220.476562 123.515625 223.195312 124.058594 C 223.589844 124.15625 223.589844 124.253906 223.195312 124.355469 C 221.316406 124.898438 219.4375 124.996094 217.660156 124.652344 C 217.464844 124.601562 217.167969 124.550781 216.773438 124.402344 C 216.425781 124.304688 216.128906 124.207031 215.832031 124.207031 C 215.683594 124.207031 215.683594 124.207031 215.785156 124.304688 C 220.773438 127.464844 225.21875 131.171875 229.171875 135.417969 C 229.664062 135.960938 230.207031 136.753906 230.898438 137.839844 C 230.949219 137.886719 230.898438 137.9375 230.851562 137.988281 C 230.800781 137.988281 230.800781 137.988281 230.75 137.988281 C 230.703125 137.988281 230.703125 137.988281 230.703125 137.9375 C 228.675781 136.109375 226.503906 134.726562 224.082031 133.789062 C 223.835938 133.691406 223.835938 133.738281 224.03125 133.886719 C 226.15625 135.714844 228.230469 137.691406 230.257812 139.667969 C 230.996094 140.40625 231.589844 140.851562 232.675781 141.691406 C 232.972656 141.890625 232.925781 141.988281 232.578125 141.890625 C 230.503906 141.347656 228.578125 140.554688 226.652344 139.519531 C 226.601562 139.519531 226.550781 139.519531 226.550781 139.566406 C 226.550781 139.617188 226.550781 139.667969 226.699219 139.765625 C 227.984375 140.949219 228.675781 141.542969 228.726562 141.59375 C 230.75 143.320312 233.074219 144.753906 235.839844 145.839844 C 236.777344 146.238281 236.777344 146.382812 235.738281 146.382812 C 233.617188 146.335938 231.589844 145.890625 229.613281 145 C 228.625 144.558594 227.390625 143.765625 226.007812 142.628906 C 225.960938 142.582031 225.910156 142.582031 225.910156 142.628906 L 225.859375 142.730469 C 225.8125 142.828125 225.8125 142.878906 225.859375 142.925781 C 228.480469 145.59375 230.949219 148.460938 233.121094 151.523438 C 234.75 153.746094 236.085938 156.164062 237.222656 158.882812 C 237.222656 158.882812 237.222656 158.929688 237.222656 158.929688 C 237.222656 158.929688 237.171875 158.929688 237.171875 158.929688 C 236.972656 158.78125 236.777344 158.632812 236.628906 158.4375 C 236.28125 157.992188 236.085938 157.746094 236.035156 157.746094 C 234.40625 156.117188 232.726562 154.632812 230.996094 153.347656 C 230.703125 153.101562 230.652344 153.152344 230.847656 153.496094 C 234.257812 158.238281 237.714844 162.535156 241.222656 166.390625 C 241.371094 166.539062 241.617188 166.882812 241.964844 167.378906 C 242.011719 167.425781 242.011719 167.527344 241.914062 167.574219 C 241.863281 167.574219 241.863281 167.625 241.816406 167.625 C 241.617188 167.625 241.421875 167.527344 241.222656 167.378906 C 239.839844 166.242188 238.359375 165.203125 236.828125 164.363281 C 236.53125 164.214844 236.53125 164.265625 236.726562 164.511719 C 238.40625 166.539062 240.136719 168.367188 241.914062 169.945312 C 242.65625 170.589844 242.554688 170.734375 241.667969 170.339844 C 241.667969 170.339844 241.125 170.09375 240.136719 169.601562 C 238.652344 168.859375 237.519531 167.921875 236.679688 166.785156 L 236.628906 166.835938 C 236.828125 166.390625 236.828125 166.390625 236.828125 166.4375 Z M 127.269531 162.683594 L 124.796875 162.386719 C 124.253906 162.339844 124.207031 162.386719 124.75 162.585938 C 125.492188 162.882812 126.28125 163.082031 127.121094 163.179688 C 127.316406 163.179688 127.464844 163.128906 127.464844 162.933594 C 127.515625 162.832031 127.417969 162.683594 127.269531 162.683594 Z M 216.230469 258.265625 C 216.671875 256.386719 216.625 254.410156 216.082031 252.335938 C 215.4375 249.917969 214.5 247.644531 213.214844 245.421875 C 213.117188 245.273438 213.066406 245.273438 212.96875 245.421875 L 212.621094 246.164062 C 212.621094 246.210938 212.574219 246.210938 212.523438 246.210938 L 212.425781 246.210938 C 212.375 246.210938 212.375 246.164062 212.375 246.113281 C 212.820312 242.851562 212.375 239.839844 211.089844 237.125 C 210.5 235.886719 209.957031 234.851562 209.511719 234.160156 C 209.265625 233.765625 209.164062 233.765625 209.164062 234.257812 C 209.265625 235.886719 209.214844 237.320312 209.117188 238.554688 C 209.015625 239.691406 208.820312 239.691406 208.574219 238.605469 C 207.585938 234.355469 205.855469 229.910156 203.433594 225.269531 C 203.386719 225.21875 203.335938 225.167969 203.289062 225.21875 C 203.289062 225.21875 203.238281 225.269531 203.238281 225.269531 C 201.113281 229.515625 199.484375 232.875 198.347656 235.246094 C 197.507812 237.074219 196.519531 238.800781 195.53125 240.582031 C 195.335938 240.878906 195.1875 240.925781 195.039062 240.679688 C 194.988281 240.628906 194.988281 240.53125 195.039062 240.480469 C 195.632812 238.753906 196.027344 237.171875 196.222656 235.738281 C 196.371094 234.800781 196.222656 234.753906 195.777344 235.59375 C 194.644531 237.863281 193.410156 240.039062 192.125 241.964844 C 191.53125 242.851562 190.9375 243.445312 190.097656 243.839844 C 188.714844 244.484375 187.578125 245.125 186.640625 245.71875 C 184.023438 247.496094 181.703125 250.558594 182.886719 253.769531 C 183.28125 254.855469 183.777344 255.746094 184.417969 256.4375 C 185.011719 257.078125 184.863281 257.226562 184.074219 256.929688 C 183.234375 256.632812 182.542969 256.140625 181.898438 255.449219 C 181.851562 255.398438 181.75 255.398438 181.652344 255.449219 C 181.601562 255.5 181.601562 255.5 181.601562 255.546875 C 181.453125 257.128906 182.097656 258.265625 182.984375 260.140625 C 183.382812 260.980469 183.578125 261.722656 183.628906 262.5625 C 183.628906 262.808594 183.480469 263.007812 183.234375 263.054688 C 183.132812 263.054688 183.085938 263.054688 182.984375 263.007812 L 182.195312 262.609375 C 182.046875 262.511719 182 262.5625 182.097656 262.710938 C 182.886719 264.191406 183.183594 265.773438 183.035156 267.453125 C 183.035156 267.5 182.984375 267.550781 182.9375 267.550781 C 182.9375 267.550781 182.9375 267.550781 182.886719 267.550781 L 182.691406 267.453125 C 182.589844 267.402344 182.492188 267.402344 182.394531 267.550781 C 182.195312 267.847656 182.046875 268.144531 182 268.390625 C 181.160156 271.898438 182.195312 275.304688 183.429688 278.960938 C 184.023438 280.640625 184.417969 282.46875 184.765625 284.296875 C 185.011719 285.726562 184.8125 286.960938 184.222656 287.902344 C 184.171875 288 184.171875 288.097656 184.171875 288.199219 L 185.851562 293.878906 C 185.898438 294.074219 185.851562 294.125 185.703125 294.027344 C 184.121094 293.039062 182.9375 291.753906 182.195312 290.074219 C 182.144531 290.023438 182.144531 290.023438 182.144531 290.074219 C 181.996094 292.199219 182.246094 294.175781 182.9375 295.953125 C 183.234375 296.742188 183.429688 297.335938 183.527344 297.730469 C 183.578125 297.976562 183.480469 298.078125 183.28125 297.929688 L 182.394531 297.535156 C 182.292969 297.484375 182.246094 297.535156 182.246094 297.632812 C 182.246094 298.273438 182.246094 299.066406 182.292969 300.101562 C 182.34375 302.324219 182.097656 304.644531 181.503906 306.96875 C 181.503906 307.015625 181.503906 307.066406 181.554688 307.117188 C 181.554688 307.117188 181.554688 307.117188 181.601562 307.117188 C 202.300781 307.015625 216.871094 307.015625 225.316406 307.164062 C 227.144531 307.214844 229.121094 307.214844 231.246094 307.214844 C 231.394531 307.214844 231.542969 307.117188 231.542969 306.917969 C 231.542969 305.832031 231.789062 304.792969 232.28125 303.757812 C 233.320312 301.582031 234.898438 300.347656 237.121094 300.050781 C 237.617188 300.003906 238.703125 300.003906 240.433594 300.152344 C 241.371094 300.199219 242.457031 300.199219 243.792969 300.101562 C 244.382812 300.050781 244.484375 299.757812 244.777344 299.261719 C 246.113281 296.695312 246.753906 294.273438 246.753906 291.359375 C 246.707031 288.296875 245.964844 285.234375 244.53125 282.121094 C 243.9375 280.789062 243.296875 279.800781 242.65625 279.160156 C 240.628906 277.035156 238.457031 275.109375 236.136719 273.378906 C 235.839844 273.132812 235.789062 273.230469 235.9375 273.527344 C 236.136719 273.871094 236.332031 274.167969 236.53125 274.417969 C 236.828125 274.761719 236.777344 274.8125 236.382812 274.664062 L 232.429688 272.835938 C 232.332031 272.785156 232.234375 272.835938 232.234375 272.933594 C 231.835938 273.921875 231.34375 274.859375 230.652344 275.652344 C 230.304688 276.097656 230.207031 275.996094 230.304688 275.503906 C 230.898438 273.082031 229.566406 270.414062 228.230469 268.441406 C 228.183594 268.390625 227.640625 267.5 226.550781 265.871094 C 226.402344 265.671875 226.304688 265.671875 226.257812 265.921875 L 225.316406 270.464844 C 225.167969 271.15625 225.070312 271.15625 224.921875 270.464844 C 224.578125 268.242188 223.886719 266.070312 222.898438 263.894531 C 222.453125 262.957031 221.910156 262.066406 221.21875 261.128906 C 221.167969 261.03125 221.070312 261.03125 220.96875 261.078125 C 220.96875 261.078125 220.921875 261.128906 220.921875 261.128906 C 220.082031 262.90625 218.945312 264.4375 217.613281 265.773438 C 217.316406 266.070312 217.214844 266.019531 217.414062 265.625 C 218.054688 264.289062 218.5 262.90625 218.699219 261.523438 C 219.09375 258.808594 218.996094 255.941406 218.5 253.128906 C 218.5 253.078125 218.453125 253.027344 218.402344 252.980469 C 218.351562 252.980469 218.304688 252.980469 218.253906 253.078125 C 217.710938 255.054688 217.117188 256.78125 216.523438 258.214844 C 216.523438 258.265625 216.476562 258.3125 216.425781 258.3125 C 216.230469 258.414062 216.179688 258.363281 216.230469 258.265625 Z M 216.230469 258.265625 " fill-opacity="1" fill-rule="nonzero"/></g></svg>