<svg xmlns="http://www.w3.org/2000/svg" xmlns:xlink="http://www.w3.org/1999/xlink" width="500" zoomAndPan="magnify" viewBox="0 0 375 374.999991" height="500" preserveAspectRatio="xMidYMid meet" version="1.0"><defs><g/><clipPath id="0ff914f7c0"><path d="M 198 125.457031 L 241 125.457031 L 241 144 L 198 144 Z M 198 125.457031 " clip-rule="nonzero"/></clipPath><clipPath id="81769187b8"><path d="M 190.105469 133 L 255 133 L 255 164 L 190.105469 164 Z M 190.105469 133 " clip-rule="nonzero"/></clipPath><clipPath id="760d5d1636"><path d="M 230.433594 159.503906 L 258.941406 159.503906 L 258.941406 174.851562 L 230.433594 174.851562 Z M 230.433594 159.503906 " clip-rule="nonzero"/></clipPath><clipPath id="c498a1b1a7"><path d="M 201.46875 116.53125 L 259 116.53125 L 259 180.28125 L 201.46875 180.28125 Z M 201.46875 116.53125 " clip-rule="nonzero"/></clipPath></defs><rect x="-37.5" width="450" fill="#ffffff" y="-37.499999" height="449.999989" fill-opacity="1"/><rect x="-37.5" width="450" fill="#ffffff" y="-37.499999" height="449.999989" fill-opacity="1"/><g clip-path="url(#0ff914f7c0)"><path fill="#ff3131" d="M 198.96875 143.632812 C 202.90625 141.835938 207.449219 140.019531 211.003906 137.925781 C 213.136719 136.664062 213.441406 136.695312 215.324219 134.96875 C 216.390625 134.023438 215.65625 134.636719 215.710938 134.878906 C 215.789062 134.945312 216.023438 134.839844 216.511719 134.519531 C 216.898438 134.277344 217.007812 134.15625 216.65625 134.539062 C 215.886719 135.253906 217.460938 134.503906 217.945312 134.386719 C 219.234375 133.964844 221.660156 132.988281 222.425781 132.539062 C 223.332031 132.019531 222.320312 132.019531 222.789062 131.941406 C 223.449219 132.039062 223.292969 132.035156 223.933594 131.398438 C 224.167969 131.144531 224.179688 131.132812 224.097656 131.265625 C 223.578125 132.109375 224.207031 131.699219 225.351562 131.136719 C 225.785156 130.910156 226.367188 130.613281 226.648438 130.480469 C 228.050781 129.789062 229.570312 129.109375 231 128.355469 C 231.296875 128.195312 232.21875 127.753906 232.195312 127.78125 C 232.0625 127.933594 230.816406 128.707031 231.863281 128.421875 C 233.761719 127.863281 233.382812 128.054688 236.128906 127.089844 C 237.386719 126.707031 239.886719 125.769531 240.960938 125.457031 C 240.964844 125.460938 240.8125 125.542969 240.625 125.636719 C 239.832031 126.117188 234.195312 128.484375 237.625 128.246094 C 238.097656 128.167969 236.003906 128.847656 235.519531 129.066406 C 234.15625 129.695312 231.179688 130.757812 230.507812 131.523438 C 230.503906 131.851562 232.136719 131.558594 232.527344 131.539062 C 233.214844 131.4375 232.023438 131.710938 231.867188 131.773438 C 228.347656 132.691406 224.03125 133.25 220.839844 135.011719 C 219.371094 135.734375 217.558594 137.207031 216.238281 137.683594 C 215.851562 138.125 207.125 140.113281 210.816406 139.96875 C 208.65625 140.753906 207.109375 140.832031 204.644531 141.664062 C 202.789062 142.234375 200.8125 143.039062 198.96875 143.632812 " fill-opacity="1" fill-rule="nonzero"/></g><g clip-path="url(#81769187b8)"><path fill="#ff3131" d="M 190.136719 163.871094 C 191.941406 162.820312 198.101562 159.570312 200.484375 157.785156 C 200.667969 157.550781 200.875 157.277344 200.886719 157.019531 C 201.421875 157.265625 202.164062 157.117188 202.746094 156.839844 C 203.828125 156.332031 204.246094 156.09375 205.21875 155.429688 C 208.039062 153.574219 209.699219 151.363281 212.453125 149.5625 C 212.964844 149.214844 213.078125 149.148438 213.015625 149.226562 C 210.453125 152.785156 224.28125 144.660156 224.792969 144.222656 C 225.609375 143.746094 226.707031 143.070312 227.371094 142.8125 C 227.042969 143.082031 226.335938 143.734375 227.21875 143.691406 C 229.613281 143.164062 232.5 141.191406 234.945312 139.828125 C 235.84375 139.324219 236.234375 139.113281 236.316406 139.082031 C 236.453125 139.035156 236.140625 139.222656 235.988281 139.351562 C 235.53125 139.628906 234.796875 140.597656 235.753906 140.46875 C 236.089844 140.4375 236.476562 140.289062 237.589844 139.769531 C 242.804688 137.441406 248.71875 135.308594 254.039062 133.644531 C 251.453125 134.796875 247.992188 135.976562 245.398438 137.359375 C 243.886719 138.027344 241.902344 139.566406 244.976562 139.503906 C 244.550781 139.640625 241.691406 140.292969 243.070312 140.542969 C 241.460938 140.710938 239.992188 141.257812 238.363281 141.957031 C 235.972656 143.074219 234.121094 143.9375 237.898438 143.542969 C 236.398438 143.871094 221.132812 147.949219 224.730469 148.921875 C 220.667969 149.40625 215.265625 152.078125 212.363281 154.300781 C 212.046875 154.542969 211.941406 154.652344 212.273438 154.285156 C 212.671875 153.910156 212.550781 153.722656 212.074219 153.808594 C 208.378906 155.1875 204.046875 158.007812 200.355469 159.796875 C 200.128906 159.886719 195.949219 162.058594 197.164062 161.265625 C 199.269531 159.710938 195.117188 161.59375 194.546875 161.8125 C 194.171875 161.957031 194.121094 161.984375 191.738281 163.15625 C 190.875 163.550781 190.105469 164.007812 190.136719 163.871094 " fill-opacity="1" fill-rule="nonzero"/></g><path fill="#ff3131" d="M 202.796875 172.742188 C 203.359375 172.335938 205.1875 171.203125 205.953125 170.820312 C 206.527344 170.542969 206.765625 170.308594 206.246094 170.425781 C 211.660156 167.84375 217.964844 162.183594 222.894531 159.8125 C 222.582031 160.097656 221.964844 160.648438 223 160.425781 C 225.214844 160.046875 227.769531 159.355469 229.484375 158.589844 C 230.816406 157.976562 232.40625 157.21875 233.054688 156.054688 C 233.1875 155.800781 233.183594 155.804688 233.289062 155.84375 C 234.238281 155.855469 234.390625 155.488281 235.617188 154.601562 C 237.230469 153.285156 239.082031 152.25 241.109375 151.78125 C 243.746094 151.332031 246.914062 149.269531 249.761719 147.914062 C 250.253906 147.667969 250.730469 147.445312 250.65625 147.496094 C 250.085938 147.886719 249.835938 148.117188 249.886719 148.210938 C 251.691406 147.933594 253.546875 146.921875 255.699219 145.964844 C 256.777344 145.445312 258.363281 144.707031 258.367188 144.722656 C 256.347656 145.863281 254.414062 146.898438 252.703125 148.152344 C 251.511719 149.011719 250.863281 149.3125 249.476562 149.707031 C 247.59375 150.242188 245.929688 150.964844 244.703125 152.210938 C 244.359375 152.609375 244.296875 152.972656 244.691406 153.070312 C 244.839844 153.101562 245.574219 152.921875 245.832031 152.871094 C 245.84375 152.878906 245.796875 152.898438 244.914062 153.242188 C 243.195312 153.914062 242.105469 154.429688 240.929688 155.042969 C 240.386719 155.308594 240.144531 155.484375 240.15625 155.605469 C 240.082031 155.746094 240.722656 155.875 240.941406 155.929688 C 240.921875 155.9375 240.695312 155.984375 240.433594 156.039062 C 238.058594 156.5625 235.476562 157.269531 233.445312 158.429688 C 231.867188 159.308594 230.898438 159.847656 229.292969 161.078125 C 228.316406 161.816406 228.097656 162.015625 228.113281 162.160156 C 228.109375 162.335938 228.433594 162.425781 228.628906 162.449219 C 228.039062 162.699219 221.832031 163.796875 224.0625 164.359375 C 222.40625 164.570312 219.515625 164.445312 218.476562 165.652344 C 217.988281 166.257812 218.632812 166.378906 219.226562 166.457031 C 219.570312 166.492188 219.617188 166.476562 218.671875 166.648438 C 214.402344 167.355469 213.355469 167.953125 209.679688 170.125 C 209.496094 170.230469 209.332031 170.316406 209.316406 170.320312 C 211.679688 168.117188 202.945312 172.734375 202.796875 172.742188 " fill-opacity="1" fill-rule="nonzero"/><g clip-path="url(#760d5d1636)"><path fill="#ff3131" d="M 230.445312 174.851562 C 232.335938 173.367188 235.691406 171.40625 235.628906 170.554688 C 235.570312 170.429688 235.625 170.46875 235.757812 170.46875 C 236.421875 170.488281 237.792969 169.46875 237.886719 168.683594 C 237.933594 168.195312 238.023438 169.324219 238.859375 168.578125 C 238.597656 169.445312 239.464844 168.824219 240.019531 168.316406 C 241.121094 167.363281 242.066406 166.59375 242.964844 165.898438 C 241.929688 167.765625 247.441406 165.203125 246.335938 164.566406 C 246.828125 164.816406 246.695312 165.171875 247.117188 164.425781 C 247.121094 164.523438 247.125 164.761719 247.097656 164.820312 C 247.023438 165.132812 247.5625 164.742188 247.644531 164.675781 C 247.683594 164.722656 247.363281 165.105469 247.558594 165.046875 C 248.308594 164.890625 249.011719 164.320312 249.8125 163.695312 C 251.738281 162.117188 251.492188 164.09375 254.855469 160.707031 C 255.667969 161.320312 257.03125 160.328125 258.617188 159.664062 C 259.011719 159.472656 259.0625 159.464844 258.671875 159.683594 C 258.140625 159.898438 248.324219 165.640625 252.042969 165.613281 C 250.839844 166.265625 250.726562 166.140625 248.835938 166.40625 C 247.894531 166.519531 247.621094 166.578125 247.25 166.75 C 246.753906 166.9375 246.570312 167.425781 247.246094 167.539062 C 247.390625 167.570312 247.472656 167.601562 247.4375 167.609375 C 246.191406 167.878906 244.28125 168.238281 243.265625 168.875 C 242.398438 169.484375 241.691406 170.152344 240.632812 170.375 C 239.707031 170.59375 237.527344 171.425781 238.496094 172.148438 C 238.652344 172.265625 238.71875 172.292969 239.042969 172.375 C 239.375 172.457031 239.394531 172.46875 239.261719 172.464844 C 238.226562 172.566406 235.5625 172.113281 235.195312 173.152344 C 235.171875 173.25 235.125 173.273438 235.054688 173.214844 C 233.914062 172.851562 231.515625 174.402344 230.445312 174.851562 " fill-opacity="1" fill-rule="nonzero"/></g><g clip-path="url(#c498a1b1a7)"><path fill="#000000" d="M 240.429688 139.632812 C 240.789062 140.195312 241.152344 140.707031 241.542969 141.164062 C 241.851562 141.523438 242.078125 141.820312 242.226562 142.019531 C 242.292969 142.128906 242.28125 142.15625 242.160156 142.101562 C 241.785156 141.941406 241.421875 141.699219 241.074219 141.402344 C 241.003906 141.351562 240.980469 141.363281 241.003906 141.445312 C 241.046875 141.550781 241.085938 141.660156 241.140625 141.765625 C 241.394531 142.261719 241.757812 142.878906 242.226562 143.644531 C 242.347656 143.832031 242.457031 144.046875 242.550781 144.289062 C 242.5625 144.304688 242.550781 144.328125 242.523438 144.328125 C 242.507812 144.328125 242.507812 144.328125 242.496094 144.328125 C 242.414062 144.304688 242.320312 144.261719 242.242188 144.207031 C 242 144.0625 241.796875 143.914062 241.636719 143.753906 C 241.476562 143.617188 241.449219 143.632812 241.542969 143.820312 C 241.757812 144.25 241.984375 144.679688 242.242188 145.109375 C 242.429688 145.417969 242.535156 145.699219 242.65625 146.035156 C 242.695312 146.140625 242.683594 146.15625 242.601562 146.0625 C 242.414062 145.820312 242.09375 145.445312 241.609375 144.945312 C 241.527344 144.851562 241.503906 144.867188 241.554688 144.972656 C 241.742188 145.363281 241.972656 145.738281 242.253906 146.128906 C 242.953125 147.066406 243.769531 147.898438 244.695312 148.609375 C 244.84375 148.71875 244.832031 148.757812 244.65625 148.703125 C 244.171875 148.558594 243.691406 148.371094 243.21875 148.113281 C 243.207031 148.113281 243.191406 148.113281 243.179688 148.113281 C 243.179688 148.113281 243.179688 148.113281 243.179688 148.128906 C 243.179688 148.128906 243.179688 148.140625 243.191406 148.140625 C 244.429688 149.226562 245.246094 149.980469 245.664062 150.382812 C 245.972656 150.675781 246.347656 151.09375 246.761719 151.617188 C 246.777344 151.628906 246.777344 151.644531 246.75 151.65625 C 246.734375 151.671875 246.722656 151.65625 246.710938 151.644531 C 246.320312 151.320312 245.902344 151.066406 245.433594 150.890625 C 245.421875 150.890625 245.421875 150.890625 245.421875 150.90625 C 245.421875 150.917969 245.421875 150.917969 245.433594 150.917969 C 246.023438 151.253906 246.574219 151.65625 247.070312 152.113281 C 247.191406 152.234375 247.472656 152.515625 247.929688 152.972656 C 248.414062 153.46875 248.964844 153.832031 249.582031 154.058594 C 249.769531 154.125 249.769531 154.167969 249.566406 154.152344 C 249.03125 154.140625 248.546875 153.992188 248.089844 153.722656 C 248.078125 153.710938 248.066406 153.722656 248.066406 153.738281 L 248.050781 153.765625 C 248.050781 153.765625 248.050781 153.765625 248.050781 153.777344 C 248.132812 153.84375 248.320312 154.003906 248.628906 154.261719 C 249.042969 154.609375 249.515625 154.863281 249.996094 155.199219 C 250.199219 155.335938 250.183594 155.375 249.957031 155.292969 C 249.488281 155.132812 248.898438 154.90625 248.160156 154.582031 C 248.117188 154.570312 248.117188 154.582031 248.132812 154.609375 C 248.171875 154.675781 248.238281 154.742188 248.304688 154.796875 C 248.992188 155.292969 249.59375 155.75 250.105469 156.179688 C 251.285156 157.160156 252.089844 158.382812 252.507812 159.855469 C 252.519531 159.898438 252.507812 159.898438 252.480469 159.871094 L 251.125 158.527344 C 251.097656 158.5 251.085938 158.5 251.113281 158.542969 C 251.515625 159.453125 251.753906 160.460938 251.835938 161.546875 C 251.835938 161.5625 251.835938 161.574219 251.835938 161.589844 C 251.835938 161.617188 251.808594 161.628906 251.78125 161.628906 C 251.769531 161.628906 251.753906 161.617188 251.742188 161.601562 L 250.910156 160.261719 C 250.871094 160.191406 250.855469 160.207031 250.871094 160.273438 C 250.898438 160.449219 250.921875 160.621094 250.949219 160.808594 C 251.003906 161.117188 251.179688 161.828125 251.488281 162.945312 C 251.648438 163.535156 251.714844 164.191406 251.6875 164.902344 C 251.6875 164.917969 251.675781 164.945312 251.660156 164.957031 L 251.621094 164.996094 C 251.59375 165.023438 251.59375 165.011719 251.582031 164.984375 C 251.527344 164.515625 251.394531 164.085938 251.152344 163.683594 C 250.949219 163.347656 250.761719 163.039062 250.546875 162.742188 C 250.46875 162.636719 250.441406 162.636719 250.480469 162.769531 C 250.65625 163.46875 250.789062 164.191406 250.871094 164.902344 C 250.871094 164.929688 250.871094 164.957031 250.855469 164.984375 C 250.84375 164.996094 250.828125 165.011719 250.800781 164.996094 C 250.800781 164.996094 250.800781 164.996094 250.789062 164.996094 C 250.75 164.957031 250.683594 164.863281 250.589844 164.703125 C 250.425781 164.421875 250.304688 164.136719 250.210938 163.855469 C 250.199219 163.804688 250.171875 163.804688 250.171875 163.855469 C 250.078125 164.339844 250.050781 164.808594 250.117188 165.277344 C 250.132812 165.398438 250.210938 165.695312 250.347656 166.179688 C 250.425781 166.460938 250.492188 166.753906 250.5625 167.089844 C 250.574219 167.144531 250.546875 167.15625 250.507812 167.132812 C 250.332031 167.039062 250.171875 166.917969 250.023438 166.769531 C 249.757812 166.5 249.472656 166.191406 249.191406 165.816406 C 249.085938 165.667969 249.058594 165.683594 249.097656 165.855469 C 249.191406 166.179688 249.285156 166.5 249.367188 166.824219 C 249.582031 167.65625 249.542969 168.472656 249.257812 169.265625 C 249.257812 169.277344 249.234375 169.292969 249.21875 169.292969 C 249.191406 169.277344 249.179688 169.265625 249.179688 169.210938 C 249.207031 168.726562 249.125 168.273438 248.9375 167.855469 C 248.898438 167.773438 248.871094 167.773438 248.855469 167.871094 C 248.75 168.460938 248.546875 169.011719 248.253906 169.519531 C 248.238281 169.546875 248.226562 169.546875 248.199219 169.558594 C 248.1875 169.558594 248.171875 169.546875 248.160156 169.535156 C 248.160156 169.535156 248.160156 169.519531 248.160156 169.519531 C 248.441406 168.539062 248.332031 167.65625 247.851562 166.835938 C 247.621094 166.460938 247.3125 166.136719 247.003906 165.828125 C 246.964844 165.789062 246.949219 165.800781 246.949219 165.855469 C 246.976562 166.097656 246.964844 166.324219 246.925781 166.527344 C 246.910156 166.566406 246.882812 166.59375 246.84375 166.582031 C 246.84375 166.582031 246.832031 166.582031 246.832031 166.582031 C 246.683594 166.515625 246.5625 166.40625 246.453125 166.257812 C 245.785156 165.253906 245.246094 164.085938 245.167969 162.917969 C 245.167969 162.824219 245.140625 162.824219 245.113281 162.902344 C 245.019531 163.144531 244.925781 163.441406 244.804688 163.789062 C 244.761719 163.921875 244.738281 164.191406 244.722656 164.582031 C 244.722656 164.609375 244.710938 164.609375 244.695312 164.609375 C 244.683594 164.609375 244.683594 164.609375 244.667969 164.59375 C 244.667969 164.59375 244.65625 164.582031 244.65625 164.566406 C 244.507812 163.898438 244.453125 163.226562 244.507812 162.527344 C 244.546875 162.03125 244.601562 161.546875 244.667969 161.039062 C 244.695312 160.863281 244.667969 160.851562 244.589844 161.011719 C 244.414062 161.375 244.320312 161.574219 244.320312 161.589844 C 244.265625 161.695312 244.214844 161.777344 244.160156 161.84375 C 244.09375 161.910156 244.078125 161.898438 244.09375 161.804688 C 244.28125 161.011719 244.375 160.152344 244.386719 159.199219 C 244.386719 159.078125 244.359375 159.078125 244.292969 159.171875 C 244.105469 159.480469 243.972656 159.84375 243.863281 160.261719 C 243.863281 160.273438 243.851562 160.273438 243.835938 160.285156 C 243.835938 160.285156 243.824219 160.285156 243.8125 160.285156 C 243.8125 160.285156 243.796875 160.285156 243.796875 160.273438 C 243.8125 159.738281 243.757812 159.199219 243.648438 158.664062 C 243.394531 157.453125 242.535156 156.488281 241.488281 155.882812 C 241.476562 155.871094 241.449219 155.882812 241.433594 155.898438 C 241.433594 155.898438 241.433594 155.910156 241.433594 155.910156 C 241.433594 156.769531 241.476562 157.589844 241.582031 158.367188 C 241.609375 158.570312 241.675781 158.757812 241.769531 158.957031 C 241.824219 159.066406 241.796875 159.078125 241.703125 159.023438 C 241.597656 158.945312 241.503906 158.863281 241.410156 158.757812 C 241.328125 158.664062 241.289062 158.675781 241.273438 158.796875 C 241.234375 159.320312 241.300781 159.855469 241.476562 160.394531 C 241.515625 160.542969 241.636719 160.730469 241.824219 160.957031 C 242.1875 161.402344 242.386719 161.65625 242.429688 161.695312 C 242.683594 162.019531 242.832031 162.351562 242.871094 162.6875 C 242.882812 162.757812 242.898438 162.945312 242.925781 163.238281 C 242.9375 163.359375 243.03125 163.535156 243.21875 163.761719 C 243.339844 163.910156 243.597656 164.207031 244.011719 164.648438 C 244.28125 164.945312 244.535156 165.253906 244.546875 165.628906 C 244.546875 165.695312 244.589844 165.761719 244.65625 165.789062 C 245.019531 165.964844 245.339844 166.136719 245.59375 166.324219 C 245.703125 166.40625 245.691406 166.433594 245.554688 166.417969 C 245.167969 166.394531 244.738281 166.300781 244.253906 166.125 C 244.144531 166.085938 244.132812 166.109375 244.199219 166.207031 C 244.386719 166.417969 244.574219 166.6875 244.761719 166.996094 C 244.953125 167.304688 245.085938 167.574219 245.152344 167.84375 C 245.152344 167.855469 245.152344 167.871094 245.125 167.882812 C 245.113281 167.882812 245.113281 167.882812 245.097656 167.882812 C 245.085938 167.882812 245.085938 167.882812 245.085938 167.871094 C 244.925781 167.640625 244.65625 167.277344 244.375 167.132812 C 244.335938 167.117188 244.320312 167.117188 244.347656 167.15625 C 244.46875 167.398438 244.574219 167.65625 244.667969 167.921875 C 244.816406 168.367188 244.925781 168.621094 244.953125 168.703125 C 245.097656 168.996094 245.300781 169.292969 245.554688 169.574219 C 245.714844 169.761719 245.945312 170.015625 246.226562 170.339844 C 246.589844 170.769531 246.761719 171.277344 246.75 171.867188 C 246.734375 172.175781 246.871094 172.460938 247.058594 172.714844 C 247.328125 173.0625 247.664062 173.371094 248.066406 173.652344 C 248.089844 173.667969 248.089844 173.707031 248.078125 173.71875 C 248.078125 173.71875 248.066406 173.734375 248.050781 173.71875 C 247.796875 173.667969 247.554688 173.601562 247.3125 173.507812 C 247.273438 173.492188 247.257812 173.507812 247.285156 173.546875 C 247.609375 174.097656 247.902344 174.554688 248.160156 174.929688 C 248.1875 174.957031 248.171875 174.96875 248.132812 174.980469 C 248.117188 174.980469 248.089844 174.96875 248.050781 174.957031 C 247.984375 174.902344 247.929688 174.863281 247.902344 174.847656 C 247.824219 174.78125 247.796875 174.792969 247.808594 174.902344 C 247.851562 175.144531 247.917969 175.4375 247.984375 175.773438 C 248.023438 175.988281 248.226562 176.726562 248.574219 177.988281 C 248.589844 178.015625 248.601562 178.027344 248.628906 178.027344 C 250.574219 178.082031 252.707031 178.191406 255.003906 178.363281 C 255.78125 178.417969 256.640625 178.511719 257.605469 178.632812 C 258.078125 178.6875 258.492188 178.78125 258.867188 178.914062 C 258.921875 178.929688 258.949219 178.980469 258.921875 179.035156 C 258.910156 179.0625 258.894531 179.074219 258.882812 179.089844 C 258.816406 179.128906 258.746094 179.15625 258.679688 179.183594 C 258.277344 179.289062 257.902344 179.371094 257.527344 179.410156 C 256.414062 179.546875 255.082031 179.652344 253.527344 179.746094 C 251.378906 179.878906 249.179688 179.976562 246.949219 180.042969 C 243.179688 180.148438 240.414062 180.203125 238.671875 180.203125 C 236 180.214844 234.054688 180.230469 232.859375 180.242188 C 231.074219 180.269531 229.398438 180.269531 227.8125 180.242188 C 227.089844 180.230469 226.511719 180.214844 226.082031 180.214844 C 221.007812 180.203125 216.003906 180.109375 211.0625 179.933594 C 208.621094 179.855469 206.5 179.746094 204.691406 179.625 C 203.976562 179.570312 203.308594 179.503906 202.636719 179.398438 C 202.273438 179.34375 201.910156 179.25 201.535156 179.101562 C 201.496094 179.089844 201.46875 179.035156 201.480469 178.980469 C 201.480469 178.96875 201.496094 178.953125 201.507812 178.953125 C 201.574219 178.902344 201.65625 178.859375 201.765625 178.832031 C 202.21875 178.714844 202.785156 178.621094 203.441406 178.550781 C 204.972656 178.390625 206.648438 178.269531 208.472656 178.175781 C 210.714844 178.070312 212.957031 177.976562 215.210938 177.921875 C 215.238281 177.921875 215.265625 177.894531 215.265625 177.867188 C 215.292969 177.332031 215.386719 176.902344 215.828125 176.5 C 216.152344 176.203125 216.390625 175.976562 216.527344 175.8125 C 216.699219 175.613281 216.875 175.492188 217.035156 175.4375 C 217.464844 175.289062 217.855469 175.316406 218.230469 175.519531 C 218.285156 175.546875 218.324219 175.558594 218.378906 175.546875 C 218.40625 175.53125 218.445312 175.519531 218.472656 175.503906 C 218.835938 175.304688 219.332031 175.34375 219.707031 175.492188 C 219.761719 175.503906 219.816406 175.492188 219.839844 175.453125 C 220.632812 174.484375 221.210938 173.398438 221.558594 172.203125 C 221.640625 171.9375 221.667969 171.652344 221.640625 171.359375 C 221.597656 170.660156 221.4375 169.9375 221.15625 169.183594 C 221.128906 169.105469 221.101562 169.105469 221.089844 169.183594 C 221.050781 169.371094 220.996094 169.574219 220.929688 169.761719 C 220.914062 169.816406 220.886719 169.800781 220.875 169.761719 C 220.847656 169.667969 220.886719 169.558594 220.875 169.464844 C 220.808594 168.417969 220.484375 167.441406 219.910156 166.539062 C 219.546875 165.976562 219.265625 165.519531 219.078125 165.171875 C 219.050781 165.117188 219.023438 165.117188 219.023438 165.183594 C 218.996094 165.480469 218.996094 165.816406 219.007812 166.164062 C 219.007812 166.324219 218.984375 166.324219 218.914062 166.191406 C 218.792969 165.949219 218.699219 165.695312 218.632812 165.398438 C 218.472656 164.714844 218.363281 164.058594 218.324219 163.453125 C 218.324219 163.398438 218.3125 163.398438 218.285156 163.441406 C 218.109375 163.828125 217.976562 164.207031 217.882812 164.582031 C 217.855469 164.6875 217.828125 164.6875 217.816406 164.582031 C 217.695312 163.496094 217.800781 162.421875 218.109375 161.375 C 218.203125 161.066406 218.339844 160.769531 218.511719 160.488281 C 218.605469 160.339844 218.59375 160.3125 218.445312 160.433594 C 218.125 160.703125 217.839844 161.039062 217.613281 161.453125 C 217.585938 161.507812 217.574219 161.507812 217.574219 161.441406 C 217.628906 161.066406 217.746094 160.714844 217.921875 160.367188 C 218.097656 160.046875 218.445312 159.601562 218.578125 159.238281 C 218.742188 158.796875 218.941406 158.273438 219.265625 157.953125 C 219.480469 157.75 219.574219 157.628906 219.640625 157.347656 C 219.734375 156.945312 219.867188 156.527344 220.042969 156.125 C 220.457031 155.1875 220.941406 154.328125 221.519531 153.550781 C 221.574219 153.46875 221.558594 153.429688 221.464844 153.414062 L 221.117188 153.375 C 221.023438 153.363281 220.941406 153.402344 220.902344 153.480469 C 220.808594 153.644531 220.742188 153.765625 220.671875 153.871094 C 220.539062 154.101562 220.632812 154.300781 220.59375 154.515625 C 220.5 154.917969 220.042969 154.972656 219.695312 155.039062 C 219.625 155.050781 219.574219 155.09375 219.53125 155.171875 C 219.222656 155.695312 219.035156 156.179688 218.941406 156.636719 C 218.902344 156.835938 218.847656 156.835938 218.78125 156.648438 C 218.605469 156.152344 218.539062 155.65625 218.578125 155.171875 C 218.59375 154.972656 218.59375 154.8125 218.566406 154.675781 C 218.511719 154.410156 218.484375 154.101562 218.511719 153.765625 C 218.527344 153.589844 218.621094 153.457031 218.78125 153.363281 C 218.902344 153.292969 219.007812 153.148438 219.128906 152.917969 C 219.359375 152.460938 219.585938 152.007812 219.800781 151.550781 C 219.839844 151.46875 219.910156 151.402344 220.003906 151.347656 C 220.78125 150.890625 221.410156 150.503906 221.90625 150.222656 C 222.097656 150.113281 222.378906 149.992188 222.738281 149.886719 C 222.808594 149.871094 222.875 149.820312 222.941406 149.738281 C 223.371094 149.296875 223.785156 148.824219 224.175781 148.34375 C 224.539062 147.898438 224.832031 147.457031 225.089844 147.011719 C 225.101562 146.988281 225.101562 146.972656 225.0625 146.988281 C 224.953125 147.011719 224.886719 147.054688 224.847656 147.066406 C 224.699219 147.160156 224.6875 147.132812 224.78125 147 C 225.261719 146.328125 225.546875 145.539062 225.613281 144.613281 C 225.652344 144.195312 225.652344 143.765625 225.640625 143.308594 C 225.640625 143.203125 225.613281 143.203125 225.558594 143.296875 C 225.476562 143.457031 225.355469 143.710938 225.210938 144.0625 C 225.195312 144.089844 225.183594 144.113281 225.167969 144.128906 C 225.15625 144.140625 225.140625 144.140625 225.128906 144.128906 C 225.128906 144.128906 225.117188 144.113281 225.117188 144.101562 C 225.089844 143.484375 225.117188 142.894531 225.195312 142.34375 C 225.25 141.980469 225.34375 141.644531 225.464844 141.351562 C 225.476562 141.324219 225.464844 141.308594 225.4375 141.296875 C 225.4375 141.296875 225.425781 141.296875 225.425781 141.296875 C 225.210938 141.308594 225.023438 141.296875 224.875 141.257812 C 224.808594 141.242188 224.792969 141.257812 224.847656 141.296875 C 224.96875 141.402344 225.046875 141.550781 225.074219 141.738281 C 225.074219 141.765625 225.0625 141.804688 225.023438 141.804688 C 225.007812 141.804688 224.996094 141.804688 224.980469 141.804688 C 224.714844 141.6875 224.378906 141.550781 223.988281 141.402344 C 223.933594 141.390625 223.90625 141.378906 223.894531 141.363281 C 223.828125 141.308594 223.800781 141.324219 223.8125 141.402344 C 223.867188 141.941406 223.894531 142.34375 223.894531 142.652344 C 223.894531 142.878906 223.855469 142.878906 223.773438 142.679688 C 223.558594 142.113281 223.25 141.578125 222.847656 141.054688 C 222.835938 141.042969 222.820312 141.042969 222.808594 141.054688 C 222.808594 141.054688 222.792969 141.066406 222.792969 141.066406 C 222.738281 141.429688 222.765625 141.78125 222.875 142.113281 C 223.023438 142.558594 223.210938 143 223.453125 143.429688 C 223.464844 143.457031 223.453125 143.496094 223.425781 143.511719 C 223.410156 143.511719 223.410156 143.523438 223.398438 143.523438 C 223.15625 143.523438 222.941406 143.46875 222.738281 143.363281 C 222.671875 143.324219 222.644531 143.335938 222.6875 143.417969 C 222.859375 143.859375 222.996094 144.25 223.101562 144.558594 C 223.359375 145.375 223.503906 145.941406 223.304688 146.679688 C 223.089844 147.417969 222.820312 148.128906 222.5 148.8125 C 222.5 148.824219 222.484375 148.824219 222.484375 148.839844 C 222.417969 148.890625 222.378906 148.867188 222.378906 148.773438 C 222.363281 148.289062 222.296875 147.871094 222.203125 147.511719 C 222.175781 147.417969 222.164062 147.417969 222.136719 147.511719 C 222.042969 147.964844 221.855469 148.382812 221.585938 148.773438 C 221.546875 148.839844 221.492188 148.878906 221.425781 148.917969 C 221.398438 148.933594 221.371094 148.917969 221.359375 148.90625 C 221.359375 148.890625 221.359375 148.890625 221.359375 148.878906 L 221.382812 148.570312 C 221.398438 148.449219 221.371094 148.4375 221.304688 148.542969 C 220.835938 149.269531 220.511719 150.058594 220.351562 150.90625 C 220.339844 150.960938 220.324219 151.011719 220.285156 151.054688 C 220.257812 151.082031 220.21875 151.09375 220.191406 151.066406 C 220.175781 151.054688 220.164062 151.039062 220.164062 151.011719 L 220.125 150.675781 C 220.125 150.652344 220.109375 150.636719 220.097656 150.625 C 220.082031 150.609375 220.070312 150.609375 220.054688 150.609375 C 220.042969 150.609375 220.027344 150.625 220.015625 150.636719 C 219.667969 151.214844 219.304688 151.816406 218.914062 152.476562 C 218.808594 152.664062 218.714844 152.839844 218.632812 153.027344 C 218.59375 153.121094 218.539062 153.320312 218.484375 153.617188 C 218.324219 154.449219 217.976562 155.1875 217.425781 155.84375 C 217.386719 155.882812 217.371094 155.964844 217.371094 156.074219 C 217.371094 156.207031 217.359375 156.476562 217.359375 156.90625 C 217.359375 156.984375 217.371094 157.078125 217.398438 157.171875 C 217.464844 157.386719 217.519531 157.429688 217.464844 157.617188 C 217.464844 157.617188 217.425781 157.710938 217.34375 157.871094 C 217.304688 157.953125 217.292969 158.019531 217.292969 158.085938 C 217.292969 158.179688 217.304688 158.246094 217.332031 158.3125 C 217.398438 158.527344 217.480469 158.796875 217.574219 159.132812 C 217.574219 159.160156 217.574219 159.171875 217.546875 159.1875 C 217.53125 159.1875 217.519531 159.1875 217.519531 159.1875 C 216.914062 158.851562 216.351562 158.421875 215.828125 157.882812 C 215.773438 157.816406 215.761719 157.722656 215.816406 157.65625 L 215.910156 157.535156 C 215.910156 157.523438 215.921875 157.507812 215.921875 157.507812 L 215.816406 156.582031 C 215.816406 156.554688 215.800781 156.542969 215.773438 156.570312 L 215.75 156.582031 C 215.734375 156.597656 215.722656 156.609375 215.722656 156.621094 C 215.695312 156.863281 215.628906 157.09375 215.519531 157.320312 C 215.507812 157.347656 215.507812 157.375 215.507812 157.402344 C 215.535156 157.496094 215.601562 157.574219 215.613281 157.667969 C 215.652344 158.046875 215.277344 158.246094 215.292969 158.636719 C 215.304688 159.078125 215.332031 159.46875 215.386719 159.804688 C 215.398438 159.855469 215.371094 159.871094 215.332031 159.84375 C 214.996094 159.617188 214.714844 159.332031 214.5 159 C 214.257812 158.621094 214.058594 158.355469 213.921875 158.179688 C 213.816406 158.058594 213.761719 157.953125 213.75 157.871094 C 213.707031 157.683594 213.800781 157.535156 213.816406 157.375 C 213.84375 157.132812 213.855469 156.890625 213.882812 156.648438 C 213.882812 156.636719 213.882812 156.621094 213.871094 156.621094 L 213.84375 156.621094 C 213.84375 156.621094 213.84375 156.621094 213.84375 156.636719 C 213.816406 156.851562 213.75 157.050781 213.628906 157.238281 C 213.613281 157.265625 213.601562 157.292969 213.601562 157.320312 C 213.601562 157.402344 213.613281 157.496094 213.65625 157.574219 C 213.667969 157.601562 213.667969 157.628906 213.65625 157.65625 C 213.585938 157.871094 213.453125 158.085938 213.277344 158.285156 C 213.15625 158.421875 213.089844 158.609375 213.078125 158.863281 C 213.050781 159.238281 213.039062 159.574219 213.0625 159.871094 C 213.0625 159.925781 213.050781 159.925781 213.011719 159.898438 C 212.339844 159.359375 211.921875 158.5 211.667969 157.667969 C 211.613281 157.496094 211.667969 157.386719 211.800781 157.335938 C 211.871094 157.308594 211.921875 157.238281 211.949219 157.121094 C 212.03125 156.757812 212.097656 156.460938 212.179688 156.195312 C 212.191406 156.167969 212.164062 156.140625 212.136719 156.125 C 212.125 156.125 212.125 156.125 212.109375 156.125 L 211.480469 156.207031 C 211.441406 156.207031 211.398438 156.234375 211.371094 156.273438 C 211.238281 156.488281 210.996094 156.597656 210.835938 156.757812 C 210.742188 156.851562 210.648438 157.039062 210.566406 157.308594 C 210.460938 157.65625 210.378906 157.992188 210.339844 158.328125 C 210.324219 158.449219 210.285156 158.460938 210.21875 158.355469 C 209.9375 157.882812 209.667969 157.144531 209.707031 156.621094 C 209.722656 156.503906 209.683594 156.488281 209.601562 156.421875 C 209.574219 156.40625 209.5625 156.382812 209.5625 156.355469 C 209.492188 156.140625 209.640625 155.777344 209.707031 155.601562 C 209.761719 155.457031 209.828125 155.359375 209.898438 155.320312 C 209.910156 155.308594 210.058594 155.242188 210.351562 155.121094 C 210.460938 155.078125 210.582031 154.933594 210.703125 154.703125 C 210.796875 154.542969 210.890625 154.328125 210.996094 154.101562 C 211.039062 154.019531 211.117188 153.953125 211.210938 153.925781 C 211.332031 153.898438 211.507812 153.871094 211.734375 153.859375 C 211.789062 153.859375 211.910156 153.832031 212.109375 153.777344 C 212.96875 153.535156 213.535156 153.386719 213.816406 153.320312 C 213.894531 153.292969 213.988281 153.242188 214.082031 153.148438 C 214.433594 152.796875 214.78125 152.476562 215.050781 152.113281 C 215.628906 151.347656 215.910156 150.488281 215.894531 149.5625 C 215.894531 148.8125 215.910156 148.25 215.949219 147.871094 C 215.949219 147.847656 215.9375 147.820312 215.910156 147.820312 C 215.910156 147.820312 215.894531 147.820312 215.882812 147.820312 C 215.867188 147.820312 215.855469 147.804688 215.855469 147.792969 C 215.855469 147.226562 215.894531 146.730469 215.988281 146.289062 C 215.988281 146.261719 215.976562 146.25 215.960938 146.234375 C 215.949219 146.234375 215.9375 146.234375 215.9375 146.234375 C 215.855469 146.277344 215.800781 146.328125 215.761719 146.371094 C 215.667969 146.476562 215.640625 146.464844 215.695312 146.328125 C 215.84375 145.886719 216.070312 145.496094 216.367188 145.160156 C 216.484375 145.027344 216.714844 144.785156 217.0625 144.449219 C 217.128906 144.382812 217.15625 144.261719 217.144531 144.074219 C 217.089844 143.308594 216.902344 142.585938 216.566406 141.902344 C 216.566406 141.886719 216.539062 141.886719 216.527344 141.886719 C 216.527344 141.886719 216.511719 141.902344 216.511719 141.902344 C 216.40625 142.167969 216.273438 142.410156 216.097656 142.613281 C 216.003906 142.734375 215.976562 142.707031 216.003906 142.570312 C 216.082031 142.25 216.125 141.859375 216.109375 141.390625 C 216.097656 140.71875 216.042969 140.074219 215.960938 139.457031 C 215.949219 139.402344 215.9375 139.390625 215.910156 139.457031 C 215.816406 139.6875 215.75 139.847656 215.695312 139.953125 C 215.679688 139.96875 215.667969 139.980469 215.652344 139.980469 C 215.640625 139.980469 215.613281 139.96875 215.613281 139.953125 C 215.613281 139.953125 215.613281 139.953125 215.613281 139.941406 C 215.722656 139.214844 215.734375 138.519531 215.640625 137.875 C 215.574219 137.335938 215.519531 136.960938 215.480469 136.746094 C 215.480469 136.71875 215.464844 136.691406 215.4375 136.679688 C 215.425781 136.679688 215.425781 136.679688 215.414062 136.679688 C 215.199219 137.242188 214.929688 137.820312 214.621094 138.382812 C 214.554688 138.492188 214.5 138.570312 214.445312 138.625 C 214.417969 138.652344 214.40625 138.652344 214.417969 138.613281 C 214.6875 137.808594 214.902344 136.933594 215.0625 135.980469 C 215.117188 135.671875 215.144531 135.363281 215.144531 135.042969 C 215.144531 135.003906 215.117188 134.960938 215.0625 134.960938 C 215.050781 134.960938 215.035156 134.960938 215.023438 134.976562 L 214.847656 135.070312 C 214.742188 135.121094 214.703125 135.097656 214.742188 134.976562 L 214.863281 134.601562 C 214.875 134.574219 214.863281 134.53125 214.820312 134.519531 C 214.808594 134.519531 214.808594 134.519531 214.796875 134.519531 C 214.03125 134.574219 213.492188 134.949219 213.183594 135.644531 C 213.050781 135.96875 212.941406 136.289062 212.875 136.613281 C 212.703125 137.445312 212.59375 137.996094 212.539062 138.238281 C 212.460938 138.597656 212.351562 138.960938 212.203125 139.324219 C 212.042969 139.726562 211.777344 140.007812 211.425781 140.167969 C 211.144531 140.304688 210.917969 140.234375 210.742188 139.996094 C 210.636719 139.832031 210.539062 139.710938 210.488281 139.617188 C 210.421875 139.5 210.460938 139.402344 210.515625 139.308594 C 210.527344 139.285156 210.515625 139.257812 210.5 139.242188 C 210.191406 139.054688 209.910156 138.8125 209.65625 138.53125 C 209.628906 138.503906 209.640625 138.464844 209.65625 138.4375 C 209.667969 138.4375 209.667969 138.425781 209.683594 138.425781 C 209.992188 138.332031 210.300781 138.289062 210.621094 138.289062 C 210.660156 138.289062 210.703125 138.261719 210.703125 138.222656 L 210.769531 137.699219 C 210.769531 137.671875 210.753906 137.644531 210.714844 137.632812 C 210.703125 137.632812 210.6875 137.632812 210.675781 137.644531 C 210.394531 137.835938 210.230469 137.941406 210.207031 137.96875 C 210.085938 138.046875 210.058594 138.023438 210.125 137.902344 C 210.21875 137.738281 210.285156 137.605469 210.351562 137.511719 C 210.515625 137.269531 210.394531 137 210.300781 136.761719 C 210.085938 136.265625 209.777344 135.792969 209.359375 135.363281 C 209.332031 135.335938 209.320312 135.335938 209.332031 135.378906 C 209.414062 135.714844 209.441406 136.007812 209.425781 136.238281 C 209.414062 136.371094 209.375 136.382812 209.304688 136.265625 L 208.78125 135.417969 C 208.757812 135.363281 208.6875 135.351562 208.636719 135.378906 C 208.636719 135.378906 208.621094 135.378906 208.621094 135.390625 L 208.273438 135.6875 C 208.246094 135.699219 208.234375 135.726562 208.234375 135.765625 C 208.234375 135.835938 208.234375 135.886719 208.246094 135.957031 C 208.300781 136.183594 208.328125 136.382812 208.328125 136.585938 C 208.328125 136.613281 208.3125 136.625 208.285156 136.597656 L 207.910156 136.222656 C 207.882812 136.195312 207.855469 136.195312 207.84375 136.222656 L 207.75 136.359375 C 207.722656 136.398438 207.722656 136.453125 207.761719 136.476562 C 207.804688 136.519531 207.816406 136.574219 207.816406 136.667969 C 207.816406 136.679688 207.804688 136.691406 207.804688 136.707031 C 207.777344 136.71875 207.761719 136.71875 207.75 136.707031 C 207.734375 136.691406 207.734375 136.679688 207.734375 136.667969 L 207.722656 136.519531 C 207.722656 136.476562 207.710938 136.476562 207.683594 136.503906 L 207.238281 137.109375 C 207.210938 137.148438 207.199219 137.203125 207.210938 137.257812 L 207.480469 138.371094 C 207.496094 138.453125 207.480469 138.464844 207.414062 138.425781 C 207.199219 138.289062 207.039062 138.117188 206.929688 137.914062 C 206.808594 137.714844 206.742188 137.578125 206.703125 137.511719 C 206.675781 137.472656 206.648438 137.472656 206.621094 137.511719 L 206.609375 137.539062 C 206.59375 137.550781 206.59375 137.578125 206.609375 137.59375 C 206.742188 137.832031 206.863281 138.046875 206.957031 138.261719 C 206.996094 138.355469 206.972656 138.382812 206.878906 138.332031 C 206.636719 138.183594 206.378906 138.0625 206.085938 137.980469 C 206.058594 137.96875 205.992188 137.914062 205.898438 137.832031 C 205.871094 137.808594 205.855469 137.808594 205.832031 137.808594 C 205.734375 137.820312 205.683594 137.820312 205.601562 137.78125 C 205.28125 137.632812 205.011719 137.445312 204.769531 137.203125 C 204.648438 137.082031 204.554688 136.933594 204.515625 136.800781 C 204.488281 136.707031 204.515625 136.597656 204.59375 136.503906 C 204.796875 136.25 204.957031 136.0625 205.078125 135.941406 C 205.238281 135.78125 205.359375 135.59375 205.46875 135.40625 C 205.761719 134.8125 205.964844 134.222656 206.070312 133.632812 C 206.140625 133.3125 206.191406 132.933594 206.246094 132.480469 C 206.246094 132.425781 206.234375 132.371094 206.179688 132.34375 C 205.601562 131.996094 205.453125 131.21875 205.480469 130.585938 C 205.496094 130.304688 205.496094 130.199219 205.667969 129.984375 C 206.003906 129.554688 206.207031 128.988281 206.273438 128.292969 C 206.3125 127.941406 206.3125 127.796875 206.164062 127.472656 C 205.898438 126.894531 205.710938 126.144531 205.855469 125.5 C 205.871094 125.445312 205.855469 125.40625 205.816406 125.367188 C 205.375 124.898438 205.214844 124.332031 205.292969 123.6875 C 205.292969 123.660156 205.320312 123.648438 205.347656 123.660156 C 207.1875 124.535156 208.097656 124.976562 208.097656 124.976562 C 208.257812 125.058594 208.433594 125.136719 208.609375 125.21875 C 208.636719 125.230469 208.675781 125.21875 208.675781 125.191406 C 208.675781 125.191406 208.675781 125.179688 208.675781 125.179688 C 208.796875 124.546875 208.660156 123.96875 208.421875 123.3125 C 208.257812 122.871094 207.992188 122.210938 207.628906 121.3125 C 207.546875 121.125 207.589844 121.097656 207.722656 121.246094 C 207.734375 121.257812 207.789062 121.300781 207.871094 121.339844 C 207.898438 121.351562 207.925781 121.339844 207.925781 121.3125 C 207.925781 121.285156 207.910156 121.257812 207.898438 121.21875 C 207.882812 121.207031 207.898438 121.191406 207.910156 121.191406 C 207.925781 121.191406 207.925781 121.191406 207.9375 121.207031 C 208.3125 121.566406 208.636719 121.875 208.917969 122.132812 C 208.917969 122.132812 208.917969 122.132812 208.929688 122.132812 L 208.957031 122.132812 C 208.957031 122.132812 208.96875 122.132812 208.96875 122.132812 C 208.96875 122.132812 208.96875 122.132812 208.96875 122.117188 C 208.851562 121.984375 208.769531 121.851562 208.730469 121.6875 C 208.703125 121.609375 208.730469 121.59375 208.796875 121.648438 C 209.117188 121.917969 209.441406 122.1875 209.777344 122.46875 C 209.816406 122.496094 209.898438 122.535156 210.03125 122.5625 C 210.394531 122.65625 210.875 122.734375 211.480469 122.804688 C 211.65625 122.816406 211.734375 122.828125 211.855469 122.707031 C 212.058594 122.507812 212.230469 122.347656 212.394531 122.265625 C 212.835938 122.023438 213.105469 121.875 213.183594 121.824219 C 213.453125 121.675781 213.800781 121.367188 214.230469 120.882812 C 214.78125 120.265625 215.199219 119.664062 215.492188 119.058594 C 215.535156 118.976562 215.546875 118.976562 215.535156 119.070312 C 215.464844 119.714844 215.277344 120.320312 214.96875 120.910156 C 214.929688 120.976562 214.941406 120.992188 215.011719 120.949219 C 215.800781 120.425781 216.484375 119.785156 217.050781 119.046875 C 217.492188 118.453125 217.921875 117.808594 218.339844 117.140625 C 218.363281 117.085938 218.378906 117.085938 218.378906 117.152344 C 218.339844 117.730469 218.230469 118.238281 218.054688 118.683594 C 218.042969 118.722656 218.054688 118.738281 218.097656 118.722656 C 218.390625 118.574219 218.621094 118.441406 218.792969 118.292969 C 219.25 117.90625 219.625 117.382812 219.910156 116.75 C 219.921875 116.722656 219.933594 116.695312 219.949219 116.683594 C 219.988281 116.65625 220.003906 116.65625 219.988281 116.710938 C 219.921875 117.273438 219.761719 117.824219 219.503906 118.347656 C 219.480469 118.386719 219.492188 118.402344 219.53125 118.375 C 219.652344 118.308594 219.800781 118.253906 219.910156 118.226562 C 220.242188 118.160156 220.632812 118.078125 221.101562 117.984375 C 222.015625 117.796875 222.792969 117.339844 223.4375 116.601562 C 223.476562 116.5625 223.476562 116.5625 223.464844 116.617188 C 223.167969 117.449219 222.738281 118.171875 222.191406 118.816406 C 222.082031 118.9375 222.097656 118.953125 222.230469 118.871094 C 222.644531 118.601562 223.0625 118.375 223.574219 118.1875 C 223.933594 118.050781 224.445312 117.863281 225.101562 117.636719 C 225.25 117.582031 225.398438 117.5 225.503906 117.449219 C 225.558594 117.421875 225.570312 117.433594 225.546875 117.488281 C 225.261719 118.078125 224.914062 118.601562 224.484375 119.070312 C 224.472656 119.085938 224.472656 119.097656 224.484375 119.113281 C 224.484375 119.113281 224.5 119.125 224.5 119.125 C 225.023438 119.179688 225.625 119.285156 226.285156 119.460938 C 226.539062 119.527344 226.808594 119.542969 227.089844 119.570312 C 227.304688 119.582031 227.304688 119.609375 227.089844 119.636719 C 226.699219 119.675781 226.351562 119.703125 226.015625 119.714844 C 225.867188 119.714844 225.691406 119.675781 225.546875 119.675781 C 225.398438 119.675781 225.398438 119.6875 225.546875 119.730469 C 226.175781 119.863281 226.765625 119.917969 227.328125 119.878906 C 227.8125 119.851562 228.257812 119.730469 228.6875 119.542969 C 229.113281 119.355469 229.519531 119.113281 229.90625 118.804688 C 229.90625 118.804688 229.921875 118.804688 229.921875 118.804688 C 229.933594 118.804688 229.933594 118.816406 229.933594 118.816406 C 229.933594 118.816406 229.933594 118.832031 229.921875 118.832031 C 229.664062 119.164062 229.34375 119.5 228.96875 119.824219 C 228.925781 119.863281 228.925781 119.878906 228.980469 119.863281 L 229.4375 119.808594 C 229.636719 119.785156 229.664062 119.835938 229.503906 119.972656 C 229.183594 120.226562 228.792969 120.480469 228.324219 120.710938 C 228.214844 120.761719 228.214844 120.804688 228.335938 120.816406 C 228.644531 120.855469 229.101562 120.925781 229.355469 121.097656 C 229.4375 121.152344 229.4375 121.164062 229.328125 121.152344 C 229.074219 121.113281 228.765625 121.113281 228.417969 121.140625 C 227.90625 121.164062 227.410156 121.394531 226.96875 121.609375 C 226.886719 121.648438 226.886719 121.664062 226.980469 121.664062 C 227.449219 121.609375 228.015625 121.609375 228.523438 121.664062 C 229.4375 121.78125 230.324219 122.011719 231.15625 122.375 C 231.316406 122.441406 231.652344 122.496094 232.175781 122.519531 C 232.1875 122.519531 232.1875 122.519531 232.1875 122.535156 C 232.1875 122.546875 232.1875 122.546875 232.175781 122.546875 C 232.039062 122.535156 231.785156 122.5625 231.398438 122.613281 C 231.0625 122.667969 230.589844 122.667969 229.972656 122.628906 C 229.972656 122.628906 229.960938 122.628906 229.960938 122.640625 C 229.960938 122.65625 229.960938 122.65625 229.972656 122.65625 C 230.726562 122.789062 231.476562 122.789062 232.242188 122.65625 C 232.324219 122.640625 232.324219 122.65625 232.269531 122.707031 C 231.945312 122.976562 231.558594 123.136719 231.128906 123.207031 C 231.046875 123.21875 231.046875 123.230469 231.128906 123.257812 C 231.652344 123.433594 232.214844 123.660156 232.617188 124.023438 C 232.710938 124.105469 232.699219 124.117188 232.578125 124.089844 C 231.8125 123.902344 231.046875 123.769531 230.253906 123.714844 C 230.160156 123.703125 230.148438 123.730469 230.242188 123.769531 C 230.753906 124.011719 231.25 124.210938 231.730469 124.386719 C 232.09375 124.507812 232.347656 124.613281 232.484375 124.683594 C 232.710938 124.800781 232.941406 124.949219 233.167969 125.125 C 233.277344 125.207031 233.261719 125.230469 233.140625 125.179688 L 232.324219 124.84375 C 232.308594 124.84375 232.308594 124.84375 232.296875 124.855469 L 232.28125 124.871094 C 232.28125 124.871094 232.28125 124.882812 232.28125 124.882812 C 232.523438 125.015625 232.847656 125.191406 233.25 125.394531 C 233.785156 125.660156 234.402344 126.089844 234.832031 126.546875 C 234.84375 126.5625 234.84375 126.585938 234.832031 126.585938 C 234.820312 126.601562 234.804688 126.601562 234.804688 126.585938 C 234.242188 126.347656 233.730469 126.132812 233.234375 125.996094 C 233.128906 125.96875 233.113281 125.984375 233.195312 126.0625 C 233.664062 126.464844 234.160156 126.84375 234.671875 127.21875 C 235.300781 127.660156 235.988281 127.96875 236.722656 128.117188 C 236.832031 128.144531 236.832031 128.171875 236.722656 128.199219 C 236.214844 128.34375 235.703125 128.371094 235.222656 128.277344 C 235.167969 128.265625 235.085938 128.25 234.980469 128.210938 C 234.886719 128.183594 234.804688 128.15625 234.726562 128.15625 C 234.683594 128.15625 234.683594 128.15625 234.710938 128.183594 C 236.066406 129.042969 237.273438 130.050781 238.347656 131.203125 C 238.484375 131.351562 238.628906 131.566406 238.816406 131.863281 C 238.832031 131.875 238.816406 131.886719 238.804688 131.902344 C 238.792969 131.902344 238.792969 131.902344 238.777344 131.902344 C 238.765625 131.902344 238.765625 131.902344 238.765625 131.886719 C 238.214844 131.390625 237.625 131.015625 236.964844 130.761719 C 236.898438 130.734375 236.898438 130.746094 236.953125 130.789062 C 237.53125 131.285156 238.09375 131.820312 238.644531 132.359375 C 238.84375 132.558594 239.007812 132.679688 239.300781 132.910156 C 239.382812 132.960938 239.367188 132.988281 239.273438 132.960938 C 238.710938 132.816406 238.1875 132.601562 237.664062 132.316406 C 237.652344 132.316406 237.636719 132.316406 237.636719 132.332031 C 237.636719 132.34375 237.636719 132.359375 237.675781 132.386719 C 238.027344 132.707031 238.214844 132.867188 238.226562 132.882812 C 238.777344 133.351562 239.410156 133.742188 240.160156 134.035156 C 240.414062 134.144531 240.414062 134.183594 240.132812 134.183594 C 239.554688 134.171875 239.007812 134.050781 238.46875 133.808594 C 238.199219 133.6875 237.867188 133.472656 237.488281 133.164062 C 237.476562 133.148438 237.460938 133.148438 237.460938 133.164062 L 237.449219 133.191406 C 237.4375 133.21875 237.4375 133.230469 237.449219 133.242188 C 238.160156 133.96875 238.832031 134.746094 239.421875 135.578125 C 239.863281 136.183594 240.226562 136.839844 240.535156 137.578125 C 240.535156 137.578125 240.535156 137.59375 240.535156 137.59375 C 240.535156 137.59375 240.523438 137.59375 240.523438 137.59375 C 240.46875 137.550781 240.414062 137.511719 240.375 137.457031 C 240.28125 137.335938 240.226562 137.269531 240.214844 137.269531 C 239.769531 136.828125 239.316406 136.425781 238.84375 136.074219 C 238.765625 136.007812 238.75 136.023438 238.804688 136.117188 C 239.730469 137.40625 240.671875 138.570312 241.621094 139.617188 C 241.664062 139.660156 241.730469 139.753906 241.824219 139.886719 C 241.835938 139.902344 241.835938 139.925781 241.8125 139.941406 C 241.796875 139.941406 241.796875 139.953125 241.785156 139.953125 C 241.730469 139.953125 241.675781 139.925781 241.621094 139.886719 C 241.246094 139.578125 240.84375 139.296875 240.429688 139.070312 C 240.347656 139.027344 240.347656 139.042969 240.402344 139.109375 C 240.859375 139.660156 241.328125 140.15625 241.8125 140.585938 C 242.011719 140.757812 241.984375 140.800781 241.742188 140.691406 C 241.742188 140.691406 241.597656 140.625 241.328125 140.492188 C 240.925781 140.289062 240.617188 140.035156 240.386719 139.726562 L 240.375 139.738281 C 240.429688 139.617188 240.429688 139.617188 240.429688 139.632812 Z M 210.660156 138.613281 L 209.992188 138.53125 C 209.84375 138.519531 209.828125 138.53125 209.976562 138.585938 C 210.179688 138.667969 210.394531 138.71875 210.621094 138.746094 C 210.675781 138.746094 210.714844 138.734375 210.714844 138.679688 C 210.730469 138.652344 210.703125 138.613281 210.660156 138.613281 Z M 234.832031 164.582031 C 234.953125 164.070312 234.941406 163.535156 234.792969 162.972656 C 234.617188 162.3125 234.363281 161.695312 234.011719 161.09375 C 233.988281 161.050781 233.972656 161.050781 233.945312 161.09375 L 233.851562 161.292969 C 233.851562 161.308594 233.839844 161.308594 233.824219 161.308594 L 233.796875 161.308594 C 233.785156 161.308594 233.785156 161.292969 233.785156 161.28125 C 233.90625 160.394531 233.785156 159.574219 233.4375 158.835938 C 233.277344 158.5 233.128906 158.21875 233.007812 158.03125 C 232.941406 157.925781 232.914062 157.925781 232.914062 158.058594 C 232.941406 158.5 232.925781 158.890625 232.898438 159.226562 C 232.871094 159.535156 232.820312 159.535156 232.753906 159.238281 C 232.484375 158.085938 232.015625 156.878906 231.355469 155.617188 C 231.34375 155.601562 231.328125 155.589844 231.316406 155.601562 C 231.316406 155.601562 231.300781 155.617188 231.300781 155.617188 C 230.726562 156.769531 230.28125 157.683594 229.972656 158.328125 C 229.746094 158.824219 229.476562 159.292969 229.207031 159.777344 C 229.15625 159.855469 229.113281 159.871094 229.074219 159.804688 C 229.0625 159.789062 229.0625 159.761719 229.074219 159.75 C 229.234375 159.28125 229.34375 158.851562 229.398438 158.460938 C 229.4375 158.207031 229.398438 158.191406 229.277344 158.421875 C 228.96875 159.039062 228.632812 159.628906 228.28125 160.152344 C 228.121094 160.394531 227.960938 160.554688 227.734375 160.664062 C 227.355469 160.835938 227.046875 161.011719 226.792969 161.171875 C 226.082031 161.65625 225.453125 162.488281 225.773438 163.359375 C 225.878906 163.65625 226.015625 163.898438 226.1875 164.085938 C 226.351562 164.257812 226.308594 164.300781 226.09375 164.21875 C 225.867188 164.136719 225.679688 164.003906 225.503906 163.816406 C 225.492188 163.804688 225.464844 163.804688 225.4375 163.816406 C 225.425781 163.828125 225.425781 163.828125 225.425781 163.84375 C 225.382812 164.273438 225.558594 164.582031 225.800781 165.089844 C 225.90625 165.320312 225.960938 165.519531 225.972656 165.75 C 225.972656 165.816406 225.933594 165.871094 225.867188 165.882812 C 225.839844 165.882812 225.828125 165.882812 225.800781 165.871094 L 225.585938 165.761719 C 225.546875 165.734375 225.53125 165.75 225.558594 165.789062 C 225.773438 166.191406 225.855469 166.621094 225.8125 167.078125 C 225.8125 167.089844 225.800781 167.105469 225.785156 167.105469 C 225.785156 167.105469 225.785156 167.105469 225.773438 167.105469 L 225.71875 167.078125 C 225.691406 167.0625 225.664062 167.0625 225.640625 167.105469 C 225.585938 167.183594 225.546875 167.265625 225.53125 167.332031 C 225.304688 168.285156 225.585938 169.210938 225.921875 170.203125 C 226.082031 170.660156 226.1875 171.15625 226.285156 171.652344 C 226.351562 172.042969 226.296875 172.378906 226.136719 172.632812 C 226.121094 172.660156 226.121094 172.6875 226.121094 172.714844 L 226.578125 174.257812 C 226.59375 174.3125 226.578125 174.324219 226.539062 174.296875 C 226.109375 174.03125 225.785156 173.679688 225.585938 173.222656 C 225.570312 173.210938 225.570312 173.210938 225.570312 173.222656 C 225.53125 173.800781 225.597656 174.339844 225.785156 174.820312 C 225.867188 175.035156 225.921875 175.195312 225.949219 175.304688 C 225.960938 175.371094 225.933594 175.398438 225.878906 175.359375 L 225.640625 175.25 C 225.613281 175.238281 225.597656 175.25 225.597656 175.277344 C 225.597656 175.453125 225.597656 175.667969 225.613281 175.949219 C 225.625 176.550781 225.558594 177.183594 225.398438 177.8125 C 225.398438 177.828125 225.398438 177.839844 225.410156 177.855469 C 225.410156 177.855469 225.410156 177.855469 225.425781 177.855469 C 231.046875 177.828125 235.007812 177.828125 237.300781 177.867188 C 237.796875 177.882812 238.335938 177.882812 238.910156 177.882812 C 238.953125 177.882812 238.992188 177.855469 238.992188 177.800781 C 238.992188 177.503906 239.058594 177.222656 239.195312 176.941406 C 239.476562 176.351562 239.90625 176.015625 240.507812 175.933594 C 240.644531 175.921875 240.9375 175.921875 241.410156 175.960938 C 241.664062 175.976562 241.957031 175.976562 242.320312 175.949219 C 242.480469 175.933594 242.507812 175.855469 242.589844 175.71875 C 242.953125 175.023438 243.125 174.363281 243.125 173.574219 C 243.113281 172.742188 242.910156 171.910156 242.523438 171.0625 C 242.359375 170.699219 242.1875 170.433594 242.011719 170.257812 C 241.460938 169.679688 240.871094 169.15625 240.242188 168.6875 C 240.160156 168.621094 240.148438 168.648438 240.1875 168.726562 C 240.242188 168.820312 240.292969 168.902344 240.347656 168.96875 C 240.429688 169.0625 240.414062 169.078125 240.308594 169.035156 L 239.234375 168.539062 C 239.207031 168.527344 239.179688 168.539062 239.179688 168.566406 C 239.074219 168.835938 238.9375 169.089844 238.75 169.304688 C 238.65625 169.425781 238.628906 169.398438 238.65625 169.265625 C 238.816406 168.609375 238.457031 167.882812 238.09375 167.347656 C 238.078125 167.332031 237.933594 167.089844 237.636719 166.648438 C 237.597656 166.59375 237.570312 166.59375 237.554688 166.660156 L 237.300781 167.894531 C 237.261719 168.085938 237.234375 168.085938 237.195312 167.894531 C 237.101562 167.292969 236.914062 166.703125 236.644531 166.109375 C 236.523438 165.855469 236.375 165.613281 236.1875 165.359375 C 236.175781 165.332031 236.148438 165.332031 236.121094 165.347656 C 236.121094 165.347656 236.105469 165.359375 236.105469 165.359375 C 235.878906 165.84375 235.570312 166.257812 235.207031 166.621094 C 235.128906 166.703125 235.101562 166.6875 235.152344 166.582031 C 235.328125 166.21875 235.449219 165.84375 235.503906 165.46875 C 235.609375 164.730469 235.582031 163.949219 235.449219 163.183594 C 235.449219 163.171875 235.4375 163.160156 235.421875 163.144531 C 235.410156 163.144531 235.394531 163.144531 235.382812 163.171875 C 235.234375 163.707031 235.074219 164.179688 234.914062 164.566406 C 234.914062 164.582031 234.898438 164.59375 234.886719 164.59375 C 234.832031 164.621094 234.820312 164.609375 234.832031 164.582031 Z M 234.832031 164.582031 " fill-opacity="1" fill-rule="nonzero"/></g><g fill="#000000" fill-opacity="1"><g transform="translate(229.19797, 192.506451)"><g><path d="M 2.140625 0.078125 C 1.785156 0.078125 1.472656 0.03125 1.203125 -0.0625 C 0.929688 -0.164062 0.671875 -0.332031 0.421875 -0.5625 C 0.328125 -0.644531 0.28125 -0.742188 0.28125 -0.859375 C 0.28125 -0.941406 0.3125 -1.015625 0.375 -1.078125 C 0.445312 -1.148438 0.523438 -1.1875 0.609375 -1.1875 C 0.691406 -1.1875 0.765625 -1.160156 0.828125 -1.109375 C 1.015625 -0.929688 1.210938 -0.800781 1.421875 -0.71875 C 1.628906 -0.632812 1.863281 -0.59375 2.125 -0.59375 C 2.425781 -0.59375 2.679688 -0.660156 2.890625 -0.796875 C 3.097656 -0.941406 3.203125 -1.117188 3.203125 -1.328125 C 3.203125 -1.578125 3.097656 -1.769531 2.890625 -1.90625 C 2.679688 -2.050781 2.367188 -2.164062 1.953125 -2.25 C 1.453125 -2.351562 1.066406 -2.519531 0.796875 -2.75 C 0.535156 -2.988281 0.40625 -3.3125 0.40625 -3.71875 C 0.40625 -4 0.476562 -4.25 0.625 -4.46875 C 0.78125 -4.6875 0.988281 -4.851562 1.25 -4.96875 C 1.519531 -5.082031 1.820312 -5.140625 2.15625 -5.140625 C 2.445312 -5.140625 2.722656 -5.085938 2.984375 -4.984375 C 3.253906 -4.890625 3.472656 -4.765625 3.640625 -4.609375 C 3.753906 -4.515625 3.8125 -4.410156 3.8125 -4.296875 C 3.8125 -4.210938 3.773438 -4.132812 3.703125 -4.0625 C 3.640625 -4 3.5625 -3.96875 3.46875 -3.96875 C 3.40625 -3.96875 3.351562 -3.984375 3.3125 -4.015625 C 3.1875 -4.140625 3.007812 -4.242188 2.78125 -4.328125 C 2.5625 -4.421875 2.351562 -4.46875 2.15625 -4.46875 C 1.820312 -4.46875 1.5625 -4.398438 1.375 -4.265625 C 1.1875 -4.140625 1.09375 -3.96875 1.09375 -3.75 C 1.09375 -3.507812 1.1875 -3.328125 1.375 -3.203125 C 1.5625 -3.078125 1.847656 -2.972656 2.234375 -2.890625 C 2.609375 -2.804688 2.914062 -2.707031 3.15625 -2.59375 C 3.394531 -2.488281 3.578125 -2.335938 3.703125 -2.140625 C 3.835938 -1.941406 3.90625 -1.679688 3.90625 -1.359375 C 3.90625 -1.078125 3.820312 -0.828125 3.65625 -0.609375 C 3.5 -0.398438 3.285156 -0.234375 3.015625 -0.109375 C 2.753906 0.015625 2.460938 0.078125 2.140625 0.078125 Z M 2.140625 0.078125 "/></g></g></g><g fill="#000000" fill-opacity="1"><g transform="translate(239.187343, 192.506451)"><g><path d="M 3.890625 -5.0625 C 3.984375 -5.0625 4.0625 -5.03125 4.125 -4.96875 C 4.195312 -4.914062 4.234375 -4.835938 4.234375 -4.734375 C 4.234375 -4.628906 4.195312 -4.546875 4.125 -4.484375 C 4.0625 -4.429688 3.984375 -4.40625 3.890625 -4.40625 L 2.59375 -4.40625 L 2.59375 -0.34375 C 2.59375 -0.25 2.554688 -0.164062 2.484375 -0.09375 C 2.421875 -0.03125 2.335938 0 2.234375 0 C 2.117188 0 2.023438 -0.03125 1.953125 -0.09375 C 1.890625 -0.164062 1.859375 -0.25 1.859375 -0.34375 L 1.859375 -4.40625 L 0.578125 -4.40625 C 0.472656 -4.40625 0.390625 -4.4375 0.328125 -4.5 C 0.265625 -4.5625 0.234375 -4.640625 0.234375 -4.734375 C 0.234375 -4.835938 0.265625 -4.914062 0.328125 -4.96875 C 0.390625 -5.03125 0.472656 -5.0625 0.578125 -5.0625 Z M 3.890625 -5.0625 "/></g></g></g><g fill="#000000" fill-opacity="1"><g transform="translate(249.429701, 192.506451)"><g><path d="M 4.1875 -5.078125 C 4.289062 -5.078125 4.367188 -5.039062 4.421875 -4.96875 C 4.484375 -4.90625 4.515625 -4.820312 4.515625 -4.71875 L 4.515625 -1.953125 C 4.515625 -1.566406 4.429688 -1.222656 4.265625 -0.921875 C 4.097656 -0.617188 3.863281 -0.378906 3.5625 -0.203125 C 3.269531 -0.0351562 2.9375 0.046875 2.5625 0.046875 C 2.1875 0.046875 1.847656 -0.0351562 1.546875 -0.203125 C 1.253906 -0.378906 1.019531 -0.617188 0.84375 -0.921875 C 0.675781 -1.222656 0.59375 -1.566406 0.59375 -1.953125 L 0.59375 -4.71875 C 0.59375 -4.820312 0.625 -4.90625 0.6875 -4.96875 C 0.757812 -5.039062 0.851562 -5.078125 0.96875 -5.078125 C 1.050781 -5.078125 1.128906 -5.039062 1.203125 -4.96875 C 1.273438 -4.90625 1.3125 -4.820312 1.3125 -4.71875 L 1.3125 -1.953125 C 1.3125 -1.691406 1.367188 -1.460938 1.484375 -1.265625 C 1.597656 -1.066406 1.75 -0.910156 1.9375 -0.796875 C 2.132812 -0.691406 2.34375 -0.640625 2.5625 -0.640625 C 2.800781 -0.640625 3.019531 -0.691406 3.21875 -0.796875 C 3.414062 -0.910156 3.570312 -1.066406 3.6875 -1.265625 C 3.800781 -1.460938 3.859375 -1.691406 3.859375 -1.953125 L 3.859375 -4.71875 C 3.859375 -4.820312 3.882812 -4.90625 3.9375 -4.96875 C 4 -5.039062 4.082031 -5.078125 4.1875 -5.078125 Z M 4.1875 -5.078125 "/></g></g></g><g fill="#000000" fill-opacity="1"><g transform="translate(260.329831, 192.506451)"><g><path d="M 2.734375 -5.0625 C 3.179688 -5.0625 3.566406 -4.945312 3.890625 -4.71875 C 4.210938 -4.5 4.457031 -4.195312 4.625 -3.8125 C 4.789062 -3.425781 4.875 -3 4.875 -2.53125 C 4.875 -2.0625 4.789062 -1.632812 4.625 -1.25 C 4.457031 -0.863281 4.210938 -0.554688 3.890625 -0.328125 C 3.566406 -0.109375 3.179688 0 2.734375 0 L 0.953125 0 C 0.847656 0 0.757812 -0.03125 0.6875 -0.09375 C 0.625 -0.164062 0.59375 -0.25 0.59375 -0.34375 L 0.59375 -4.71875 C 0.59375 -4.8125 0.625 -4.890625 0.6875 -4.953125 C 0.757812 -5.023438 0.847656 -5.0625 0.953125 -5.0625 Z M 2.65625 -0.671875 C 3.144531 -0.671875 3.507812 -0.84375 3.75 -1.1875 C 4 -1.539062 4.125 -1.988281 4.125 -2.53125 C 4.125 -3.070312 4 -3.519531 3.75 -3.875 C 3.507812 -4.226562 3.144531 -4.40625 2.65625 -4.40625 L 1.3125 -4.40625 L 1.3125 -0.671875 Z M 2.65625 -0.671875 "/></g></g></g><g fill="#000000" fill-opacity="1"><g transform="translate(271.295013, 192.506451)"><g><path d="M 1.3125 -0.359375 C 1.3125 -0.253906 1.273438 -0.164062 1.203125 -0.09375 C 1.128906 -0.03125 1.046875 0 0.953125 0 C 0.847656 0 0.757812 -0.03125 0.6875 -0.09375 C 0.625 -0.164062 0.59375 -0.253906 0.59375 -0.359375 L 0.59375 -4.71875 C 0.59375 -4.8125 0.625 -4.890625 0.6875 -4.953125 C 0.757812 -5.023438 0.851562 -5.0625 0.96875 -5.0625 C 1.0625 -5.0625 1.140625 -5.023438 1.203125 -4.953125 C 1.273438 -4.890625 1.3125 -4.8125 1.3125 -4.71875 Z M 1.3125 -0.359375 "/></g></g></g><g fill="#000000" fill-opacity="1"><g transform="translate(278.993034, 192.506451)"><g><path d="M 5.203125 -2.53125 C 5.203125 -2.039062 5.097656 -1.597656 4.890625 -1.203125 C 4.679688 -0.804688 4.390625 -0.492188 4.015625 -0.265625 C 3.640625 -0.0351562 3.21875 0.078125 2.75 0.078125 C 2.28125 0.078125 1.859375 -0.0351562 1.484375 -0.265625 C 1.117188 -0.492188 0.832031 -0.804688 0.625 -1.203125 C 0.414062 -1.597656 0.3125 -2.039062 0.3125 -2.53125 C 0.3125 -3.019531 0.414062 -3.460938 0.625 -3.859375 C 0.832031 -4.253906 1.117188 -4.566406 1.484375 -4.796875 C 1.859375 -5.023438 2.28125 -5.140625 2.75 -5.140625 C 3.21875 -5.140625 3.640625 -5.023438 4.015625 -4.796875 C 4.390625 -4.566406 4.679688 -4.253906 4.890625 -3.859375 C 5.097656 -3.460938 5.203125 -3.019531 5.203125 -2.53125 Z M 4.453125 -2.53125 C 4.453125 -2.894531 4.378906 -3.222656 4.234375 -3.515625 C 4.085938 -3.804688 3.882812 -4.035156 3.625 -4.203125 C 3.375 -4.367188 3.082031 -4.453125 2.75 -4.453125 C 2.425781 -4.453125 2.132812 -4.367188 1.875 -4.203125 C 1.613281 -4.035156 1.410156 -3.804688 1.265625 -3.515625 C 1.128906 -3.222656 1.0625 -2.894531 1.0625 -2.53125 C 1.0625 -2.164062 1.128906 -1.835938 1.265625 -1.546875 C 1.410156 -1.253906 1.613281 -1.023438 1.875 -0.859375 C 2.132812 -0.691406 2.425781 -0.609375 2.75 -0.609375 C 3.082031 -0.609375 3.375 -0.691406 3.625 -0.859375 C 3.882812 -1.023438 4.085938 -1.253906 4.234375 -1.546875 C 4.378906 -1.835938 4.453125 -2.164062 4.453125 -2.53125 Z M 4.453125 -2.53125 "/></g></g></g><g fill="#000000" fill-opacity="1"><g transform="translate(57.35961, 176.618727)"><g><path d="M 44.703125 1.21875 C 44.265625 1.21875 44.046875 0.957031 44.046875 0.4375 C 44.046875 0.21875 44.300781 -0.222656 44.8125 -0.890625 C 49.25 -5.992188 53.148438 -10.6875 56.515625 -14.96875 C 59.890625 -19.257812 62.535156 -22.921875 64.453125 -25.953125 C 66.378906 -28.992188 67.34375 -31.140625 67.34375 -32.390625 C 67.34375 -33.054688 67.007812 -33.390625 66.34375 -33.390625 C 65.300781 -33.390625 63.78125 -32.722656 61.78125 -31.390625 C 59.789062 -30.066406 57.535156 -28.296875 55.015625 -26.078125 C 52.503906 -23.859375 49.914062 -21.414062 47.25 -18.75 C 44.59375 -16.082031 42.039062 -13.398438 39.59375 -10.703125 C 37.15625 -8.003906 35.015625 -5.507812 33.171875 -3.21875 C 32.953125 -2.925781 32.65625 -2.890625 32.28125 -3.109375 C 31.914062 -3.328125 31.84375 -3.625 32.0625 -4 C 32.507812 -4.664062 33.023438 -5.40625 33.609375 -6.21875 C 34.203125 -7.03125 34.832031 -7.914062 35.5 -8.875 C 36.976562 -10.945312 38.472656 -13.09375 39.984375 -15.3125 C 41.503906 -17.53125 42.78125 -19.597656 43.8125 -21.515625 C 44.851562 -23.441406 45.375 -25 45.375 -26.1875 C 45.375 -27.144531 44.78125 -27.625 43.59375 -27.625 C 42.1875 -27.625 40.503906 -27.101562 38.546875 -26.0625 C 36.585938 -25.03125 34.535156 -23.664062 32.390625 -21.96875 C 30.984375 -19.445312 29.316406 -16.875 27.390625 -14.25 C 25.472656 -11.625 23.550781 -9.203125 21.625 -6.984375 C 19.707031 -4.765625 17.953125 -2.988281 16.359375 -1.65625 C 14.773438 -0.332031 13.613281 0.328125 12.875 0.328125 C 12.132812 0.328125 11.765625 -0.00390625 11.765625 -0.671875 C 11.765625 -1.335938 12.335938 -2.484375 13.484375 -4.109375 C 14.628906 -5.734375 16.144531 -7.632812 18.03125 -9.8125 C 19.914062 -12 22.019531 -14.238281 24.34375 -16.53125 C 26.675781 -18.820312 29.023438 -20.894531 31.390625 -22.75 C 32.359375 -24.445312 33.117188 -26.085938 33.671875 -27.671875 C 34.222656 -29.265625 34.5 -30.65625 34.5 -31.84375 C 34.5 -33.613281 33.757812 -34.5 32.28125 -34.5 C 28.0625 -34.5 23.21875 -31.429688 17.75 -25.296875 C 17.675781 -25.148438 17.492188 -25.078125 17.203125 -25.078125 C 16.828125 -25.078125 16.640625 -25.257812 16.640625 -25.625 C 16.640625 -25.84375 16.675781 -25.992188 16.75 -26.078125 C 19.5625 -29.253906 22.28125 -31.671875 24.90625 -33.328125 C 27.53125 -34.992188 29.988281 -35.828125 32.28125 -35.828125 C 33.320312 -35.828125 34.171875 -35.472656 34.828125 -34.765625 C 35.492188 -34.066406 35.828125 -33.09375 35.828125 -31.84375 C 35.828125 -30.875 35.625 -29.757812 35.21875 -28.5 C 34.8125 -27.25 34.273438 -25.882812 33.609375 -24.40625 C 35.535156 -25.8125 37.347656 -26.921875 39.046875 -27.734375 C 40.753906 -28.546875 42.269531 -28.953125 43.59375 -28.953125 C 45.664062 -28.953125 46.703125 -28.03125 46.703125 -26.1875 C 46.703125 -24.925781 46.164062 -23.296875 45.09375 -21.296875 C 44.019531 -19.304688 42.632812 -17.015625 40.9375 -14.421875 C 40.644531 -14.128906 40.550781 -13.925781 40.65625 -13.8125 C 40.769531 -13.695312 40.972656 -13.828125 41.265625 -14.203125 C 44.671875 -17.828125 48.019531 -21.171875 51.3125 -24.234375 C 54.601562 -27.304688 57.578125 -29.800781 60.234375 -31.71875 C 62.898438 -33.644531 64.9375 -34.609375 66.34375 -34.609375 C 67.894531 -34.609375 68.671875 -33.867188 68.671875 -32.390625 C 68.671875 -30.984375 67.742188 -28.765625 65.890625 -25.734375 C 64.046875 -22.703125 61.476562 -19.078125 58.1875 -14.859375 C 54.894531 -10.648438 51.03125 -6.03125 46.59375 -1 C 46.882812 -0.851562 46.882812 -0.59375 46.59375 -0.21875 C 46.300781 0.0703125 45.988281 0.382812 45.65625 0.71875 C 45.320312 1.050781 45.003906 1.21875 44.703125 1.21875 Z M 13.75 -1.21875 C 14.789062 -1.8125 16.253906 -3.066406 18.140625 -4.984375 C 20.023438 -6.910156 22.003906 -9.1875 24.078125 -11.8125 C 26.148438 -14.4375 28.035156 -17.046875 29.734375 -19.640625 C 29.804688 -19.710938 29.582031 -19.5625 29.0625 -19.1875 C 28.550781 -18.820312 27.882812 -18.234375 27.0625 -17.421875 C 24.925781 -15.421875 22.910156 -13.382812 21.015625 -11.3125 C 19.128906 -9.238281 17.519531 -7.351562 16.1875 -5.65625 C 14.863281 -3.957031 13.941406 -2.628906 13.421875 -1.671875 C 13.203125 -1.222656 13.3125 -1.070312 13.75 -1.21875 Z M 13.75 -1.21875 "/></g></g></g><g fill="#000000" fill-opacity="1"><g transform="translate(121.476984, 176.618727)"><g><path d="M 14.984375 0.109375 C 12.316406 0.109375 10.984375 -1 10.984375 -3.21875 C 10.984375 -4.320312 11.28125 -5.46875 11.875 -6.65625 C 12.46875 -7.84375 13.09375 -8.914062 13.75 -9.875 C 13.90625 -10.019531 13.941406 -10.128906 13.859375 -10.203125 C 13.785156 -10.273438 13.675781 -10.238281 13.53125 -10.09375 C 13.019531 -9.800781 12.28125 -9.285156 11.3125 -8.546875 C 9.757812 -7.429688 8.039062 -6.226562 6.15625 -4.9375 C 4.269531 -3.644531 2.472656 -2.515625 0.765625 -1.546875 C -0.929688 -0.585938 -2.296875 -0.109375 -3.328125 -0.109375 C -4.660156 -0.109375 -5.328125 -0.703125 -5.328125 -1.890625 C -5.328125 -2.847656 -4.804688 -3.898438 -3.765625 -5.046875 C -2.734375 -6.191406 -1.441406 -7.28125 0.109375 -8.3125 C 1.660156 -9.351562 3.191406 -10.207031 4.703125 -10.875 C 6.222656 -11.539062 7.46875 -11.875 8.4375 -11.875 C 9.914062 -11.875 10.945312 -11.316406 11.53125 -10.203125 C 13.90625 -11.984375 15.3125 -12.875 15.75 -12.875 C 16.269531 -12.875 16.53125 -12.613281 16.53125 -12.09375 C 16.53125 -11.800781 16.125 -11.0625 15.3125 -9.875 C 14.644531 -8.914062 13.957031 -7.820312 13.25 -6.59375 C 12.550781 -5.375 12.203125 -4.25 12.203125 -3.21875 C 12.203125 -1.882812 13.128906 -1.21875 14.984375 -1.21875 C 16.160156 -1.21875 17.894531 -1.585938 20.1875 -2.328125 C 22.476562 -3.066406 24.914062 -4.066406 27.5 -5.328125 C 30.09375 -6.585938 32.425781 -7.992188 34.5 -9.546875 C 34.570312 -9.617188 34.722656 -9.65625 34.953125 -9.65625 C 35.316406 -9.65625 35.5 -9.46875 35.5 -9.09375 C 35.5 -8.875 35.425781 -8.691406 35.28125 -8.546875 C 33.207031 -7.066406 30.835938 -5.660156 28.171875 -4.328125 C 25.515625 -2.992188 22.984375 -1.921875 20.578125 -1.109375 C 18.171875 -0.296875 16.304688 0.109375 14.984375 0.109375 Z M -3.328125 -1.4375 C -2.441406 -1.4375 -1.203125 -1.878906 0.390625 -2.765625 C 1.984375 -3.660156 3.679688 -4.734375 5.484375 -5.984375 C 7.296875 -7.242188 8.941406 -8.429688 10.421875 -9.546875 C 10.054688 -10.285156 9.394531 -10.65625 8.4375 -10.65625 C 7.46875 -10.65625 6.28125 -10.335938 4.875 -9.703125 C 3.476562 -9.078125 2.09375 -8.265625 0.71875 -7.265625 C -0.644531 -6.265625 -1.789062 -5.285156 -2.71875 -4.328125 C -3.644531 -3.367188 -4.109375 -2.554688 -4.109375 -1.890625 C -4.109375 -1.585938 -3.847656 -1.4375 -3.328125 -1.4375 Z M -3.328125 -1.4375 "/></g></g></g><g fill="#000000" fill-opacity="1"><g transform="translate(153.868465, 176.618727)"><g><path d="M -42.375 45.375 C -44.15625 45.375 -45.046875 44.523438 -45.046875 42.828125 C -45.046875 41.785156 -43.785156 40.132812 -41.265625 37.875 C -38.753906 35.625 -34.742188 32.554688 -29.234375 28.671875 C -23.722656 24.796875 -16.492188 19.9375 -7.546875 14.09375 C -2.960938 9.207031 0.617188 5.15625 3.203125 1.9375 C 5.796875 -1.28125 7.910156 -3.882812 9.546875 -5.875 C 9.910156 -6.394531 10.019531 -6.691406 9.875 -6.765625 C 9.726562 -6.835938 9.210938 -6.578125 8.328125 -5.984375 C 1.890625 -2.066406 -2.179688 -0.109375 -3.890625 -0.109375 C -5.140625 -0.109375 -5.765625 -0.738281 -5.765625 -2 C -5.765625 -2.882812 -5.171875 -3.9375 -3.984375 -5.15625 C -2.804688 -6.375 -1.3125 -7.535156 0.5 -8.640625 C 2.3125 -9.753906 4.175781 -10.679688 6.09375 -11.421875 C 8.019531 -12.160156 9.722656 -12.53125 11.203125 -12.53125 C 12.015625 -12.53125 12.679688 -12.398438 13.203125 -12.140625 C 13.722656 -11.890625 13.984375 -11.46875 13.984375 -10.875 C 13.984375 -10.351562 13.757812 -9.722656 13.3125 -8.984375 C 12.863281 -8.242188 11.941406 -6.953125 10.546875 -5.109375 C 9.140625 -3.328125 7.363281 -1.125 5.21875 1.5 C 3.070312 4.125 0.257812 7.394531 -3.21875 11.3125 L 7.4375 4.328125 C 12.382812 1.148438 16.726562 -1.65625 20.46875 -4.09375 C 24.207031 -6.539062 26.738281 -8.28125 28.0625 -9.3125 C 28.132812 -9.394531 28.285156 -9.4375 28.515625 -9.4375 C 28.878906 -9.4375 29.0625 -9.25 29.0625 -8.875 C 29.0625 -8.582031 28.988281 -8.398438 28.84375 -8.328125 C 27.507812 -7.285156 24.972656 -5.523438 21.234375 -3.046875 C 17.503906 -0.566406 13.125 2.257812 8.09375 5.4375 C 5.4375 7.132812 2.867188 8.796875 0.390625 10.421875 C -2.085938 12.054688 -4.4375 13.613281 -6.65625 15.09375 C -8.65625 17.238281 -10.875 19.566406 -13.3125 22.078125 C -15.75 24.585938 -18.410156 27.320312 -21.296875 30.28125 C -31.285156 40.34375 -38.3125 45.375 -42.375 45.375 Z M -3.890625 -1.328125 C -2.628906 -1.328125 1.21875 -3.25 7.65625 -7.09375 C 8.757812 -7.757812 9.679688 -8.332031 10.421875 -8.8125 C 11.160156 -9.300781 11.753906 -9.691406 12.203125 -9.984375 L 12.53125 -10.3125 C 12.601562 -10.46875 12.640625 -10.65625 12.640625 -10.875 C 12.640625 -11.09375 12.160156 -11.203125 11.203125 -11.203125 C 9.941406 -11.203125 8.441406 -10.867188 6.703125 -10.203125 C 4.972656 -9.535156 3.253906 -8.6875 1.546875 -7.65625 C -0.148438 -6.625 -1.570312 -5.585938 -2.71875 -4.546875 C -3.863281 -3.515625 -4.4375 -2.664062 -4.4375 -2 C -4.4375 -1.550781 -4.253906 -1.328125 -3.890625 -1.328125 Z M -42.375 44.046875 C -38.675781 44.046875 -31.945312 39.164062 -22.1875 29.40625 C -20.113281 27.257812 -18.171875 25.242188 -16.359375 23.359375 C -14.546875 21.472656 -12.828125 19.675781 -11.203125 17.96875 C -22.597656 25.507812 -30.882812 31.257812 -36.0625 35.21875 C -41.238281 39.175781 -43.828125 41.710938 -43.828125 42.828125 C -43.828125 43.640625 -43.34375 44.046875 -42.375 44.046875 Z M -42.375 44.046875 "/></g></g></g><g fill="#000000" fill-opacity="1"><g transform="translate(180.047876, 176.618727)"><g><path d="M -3.109375 0 C -3.847656 0 -4.144531 -0.40625 -4 -1.21875 C -3.925781 -1.59375 -3.460938 -2.390625 -2.609375 -3.609375 C -1.753906 -4.828125 -0.664062 -6.226562 0.65625 -7.8125 C 1.988281 -9.40625 3.453125 -11.035156 5.046875 -12.703125 C 6.640625 -14.367188 8.25 -15.789062 9.875 -16.96875 C 9.945312 -17.039062 10.09375 -17.078125 10.3125 -17.078125 C 10.6875 -17.078125 10.875 -16.894531 10.875 -16.53125 C 10.875 -16.3125 10.800781 -16.125 10.65625 -15.96875 C 8.4375 -14.34375 6.253906 -12.3125 4.109375 -9.875 C 1.960938 -7.4375 0.257812 -5.363281 -1 -3.65625 C -1.070312 -3.507812 -1.085938 -3.363281 -1.046875 -3.21875 C -1.015625 -3.070312 -0.851562 -3.070312 -0.5625 -3.21875 C 8.019531 -9.425781 13.644531 -12.53125 16.3125 -12.53125 C 17.488281 -12.53125 18.078125 -12.015625 18.078125 -10.984375 C 18.078125 -10.460938 17.984375 -9.796875 17.796875 -8.984375 C 17.617188 -8.171875 17.457031 -7.359375 17.3125 -6.546875 C 16.863281 -5.140625 16.640625 -4.066406 16.640625 -3.328125 C 16.640625 -2.734375 17.046875 -2.4375 17.859375 -2.4375 C 19.710938 -2.4375 22.191406 -3.082031 25.296875 -4.375 C 28.398438 -5.675781 31.617188 -7.4375 34.953125 -9.65625 L 35.28125 -9.65625 C 35.71875 -9.65625 35.9375 -9.46875 35.9375 -9.09375 C 35.9375 -8.875 35.828125 -8.691406 35.609375 -8.546875 C 32.210938 -6.328125 28.90625 -4.550781 25.6875 -3.21875 C 22.46875 -1.882812 19.859375 -1.21875 17.859375 -1.21875 C 16.160156 -1.21875 15.3125 -1.921875 15.3125 -3.328125 C 15.3125 -3.703125 15.382812 -4.203125 15.53125 -4.828125 C 15.675781 -5.453125 15.820312 -6.132812 15.96875 -6.875 C 16.195312 -7.6875 16.398438 -8.460938 16.578125 -9.203125 C 16.765625 -9.941406 16.859375 -10.460938 16.859375 -10.765625 C 16.859375 -11.128906 16.675781 -11.3125 16.3125 -11.3125 C 15.125 -11.3125 13.492188 -10.738281 11.421875 -9.59375 C 9.359375 -8.445312 7.253906 -7.113281 5.109375 -5.59375 C 2.960938 -4.082031 1.148438 -2.8125 -0.328125 -1.78125 C -0.992188 -1.332031 -1.566406 -0.921875 -2.046875 -0.546875 C -2.535156 -0.179688 -2.890625 0 -3.109375 0 Z M -3.109375 0 "/></g></g></g><g fill="#000000" fill-opacity="1"><g transform="translate(212.773662, 176.618727)"><g/></g></g><g fill="#000000" fill-opacity="1"><g transform="translate(237.289125, 176.618727)"><g/></g></g><g fill="#000000" fill-opacity="1"><g transform="translate(261.804909, 176.618727)"><g><path d="M -0.4375 5.328125 C -1.695312 5.328125 -2.328125 4.847656 -2.328125 3.890625 C -2.328125 3.148438 -1.660156 2.351562 -0.328125 1.5 C 1.003906 0.644531 2.59375 -0.1875 4.4375 -1 C 6.289062 -1.8125 7.957031 -2.476562 9.4375 -3 C 9.582031 -3 9.65625 -3.035156 9.65625 -3.109375 C 9.800781 -3.398438 9.960938 -3.675781 10.140625 -3.9375 C 10.328125 -4.195312 10.347656 -4.398438 10.203125 -4.546875 C 10.128906 -4.691406 9.59375 -4.707031 8.59375 -4.59375 C 7.59375 -4.488281 6.875 -4.398438 6.4375 -4.328125 C 5.769531 -4.253906 5.117188 -4.160156 4.484375 -4.046875 C 3.859375 -3.941406 3.25 -3.890625 2.65625 -3.890625 C 0.882812 -3.890625 0 -4.476562 0 -5.65625 C 0 -6.769531 0.585938 -7.953125 1.765625 -9.203125 C 2.953125 -10.460938 4.359375 -11.554688 5.984375 -12.484375 C 7.617188 -13.410156 9.097656 -13.875 10.421875 -13.875 C 11.753906 -13.875 12.421875 -13.316406 12.421875 -12.203125 C 12.421875 -11.984375 12.382812 -11.835938 12.3125 -11.765625 C 11.945312 -10.285156 11.171875 -9.210938 9.984375 -8.546875 C 9.910156 -8.472656 9.800781 -8.4375 9.65625 -8.4375 C 9.207031 -8.4375 8.984375 -8.65625 8.984375 -9.09375 C 8.984375 -9.394531 9.09375 -9.582031 9.3125 -9.65625 C 9.6875 -9.875 10.078125 -10.238281 10.484375 -10.75 C 10.890625 -11.269531 11.09375 -11.71875 11.09375 -12.09375 C 11.09375 -12.457031 10.867188 -12.640625 10.421875 -12.640625 C 9.316406 -12.640625 8.0625 -12.234375 6.65625 -11.421875 C 5.25 -10.609375 4.007812 -9.664062 2.9375 -8.59375 C 1.863281 -7.519531 1.328125 -6.539062 1.328125 -5.65625 C 1.328125 -5.289062 1.769531 -5.109375 2.65625 -5.109375 C 3.175781 -5.109375 3.75 -5.160156 4.375 -5.265625 C 5.007812 -5.378906 5.625 -5.472656 6.21875 -5.546875 C 6.800781 -5.691406 7.367188 -5.800781 7.921875 -5.875 C 8.484375 -5.945312 8.988281 -5.984375 9.4375 -5.984375 C 10.832031 -5.984375 11.53125 -5.46875 11.53125 -4.4375 C 11.457031 -4.363281 11.421875 -4.289062 11.421875 -4.21875 C 11.421875 -4.144531 11.382812 -4.035156 11.3125 -3.890625 C 11.3125 -3.585938 11.382812 -3.507812 11.53125 -3.65625 C 12.863281 -4.03125 14.285156 -4.457031 15.796875 -4.9375 C 17.316406 -5.414062 18.851562 -5.878906 20.40625 -6.328125 C 22.332031 -6.921875 24.253906 -7.492188 26.171875 -8.046875 C 28.097656 -8.597656 29.875 -9.132812 31.5 -9.65625 L 31.734375 -9.65625 C 32.097656 -9.65625 32.28125 -9.46875 32.28125 -9.09375 C 32.28125 -8.726562 32.132812 -8.507812 31.84375 -8.4375 C 30.21875 -7.914062 28.441406 -7.375 26.515625 -6.8125 C 24.585938 -6.257812 22.664062 -5.691406 20.75 -5.109375 C 18.894531 -4.585938 17.097656 -4.046875 15.359375 -3.484375 C 13.628906 -2.929688 12.023438 -2.4375 10.546875 -2 L 10.203125 -1.78125 C 9.097656 -0.144531 7.507812 1.445312 5.4375 3 C 3.363281 4.550781 1.40625 5.328125 -0.4375 5.328125 Z M -0.4375 4 C 0.8125 4 2.191406 3.535156 3.703125 2.609375 C 5.222656 1.679688 6.539062 0.625 7.65625 -0.5625 C 7.875 -0.78125 7.800781 -0.890625 7.4375 -0.890625 C 5.144531 0.078125 3.144531 1.019531 1.4375 1.9375 C -0.257812 2.863281 -1.109375 3.472656 -1.109375 3.765625 C -1.109375 3.921875 -0.882812 4 -0.4375 4 Z M -0.4375 4 "/></g></g></g><g fill="#000000" fill-opacity="1"><g transform="translate(290.984594, 176.618727)"><g/></g></g></svg>